<svg xmlns="http://www.w3.org/2000/svg" xmlns:xlink="http://www.w3.org/1999/xlink" contentStyleType="text/css" data-diagram-type="CLASS" height="936px" preserveAspectRatio="none" style="width:3298px;height:936px;background:#FFFFFF;" version="1.1" viewBox="0 0 3298 936" width="3298px" zoomAndPan="magnify"><?plantuml 1.2026.6?><defs/><g><g class="title" data-source-line="1"><text fill="#000000" font-family="sans-serif" font-size="14" font-weight="700" lengthAdjust="spacing" textLength="307.9385" x="1491.5308" y="23.5352">SO DO LOP 3 TANG - LAP PHIEU DOI SOAT</text></g><!--cluster GUI_LAYER--><g class="cluster" data-qualified-name="GUI_LAYER" data-source-line="14" id="ent0001"><rect fill="#EDF9EC" height="164.47" rx="2.5" ry="2.5" style="stroke:#000000;stroke-width:1.5;" width="335" x="2549" y="44.4883"/><text fill="#000000" font-family="sans-serif" font-size="14" font-weight="700" lengthAdjust="spacing" textLength="122.2197" x="2655.3901" y="60.0234">TANG GIAO DIEN</text></g><!--cluster BUS_LAYER--><g class="cluster" data-qualified-name="BUS_LAYER" data-source-line="22" id="ent0003"><rect fill="#FFF9E6" height="468.84" rx="2.5" ry="2.5" style="stroke:#000000;stroke-width:1.5;" width="3277" x="7" y="248.9583"/><text fill="#000000" font-family="sans-serif" font-size="14" font-weight="700" lengthAdjust="spacing" textLength="124.2432" x="1583.3784" y="264.4934">TANG NGHIEP VU</text></g><!--cluster DAL_LAYER--><g class="cluster" data-qualified-name="DAL_LAYER" data-source-line="72" id="ent0011"><rect fill="#EDF6FC" height="164.46" rx="2.5" ry="2.5" style="stroke:#000000;stroke-width:1.5;" width="2968" x="260" y="757.7983"/><text fill="#000000" font-family="sans-serif" font-size="14" font-weight="700" lengthAdjust="spacing" textLength="180.6396" x="1653.6802" y="773.3334">TANG TRUY CAP DU LIEU</text></g><!--class MHLapPhieuDoiSoat--><g class="entity" data-qualified-name="GUI_LAYER.MHLapPhieuDoiSoat" data-source-line="15" id="ent0002"><rect fill="#BFE8BA" height="97.4648" rx="2.5" ry="2.5" style="stroke:#9B7B7B;stroke-width:0.5;" width="247.915" x="2573.04" y="87.4883"/><ellipse cx="2624.9692" cy="103.4883" fill="#ADD1B2" rx="11" ry="11" style="stroke:#181818;stroke-width:1;"/><path d="M2627.4423,109.6313 Q2626.8613,109.9302 2626.2221,110.0796 Q2625.583,110.229 2624.8774,110.229 Q2622.3706,110.229 2621.0507,108.5771 Q2619.7309,106.9253 2619.7309,103.8042 Q2619.7309,100.6748 2621.0507,99.0229 Q2622.3706,97.3711 2624.8774,97.3711 Q2625.583,97.3711 2626.2304,97.5205 Q2626.8779,97.6699 2627.4423,97.9688 L2627.4423,100.6914 Q2626.8115,100.1104 2626.218,99.8406 Q2625.6245,99.5708 2624.9936,99.5708 Q2623.6489,99.5708 2622.9641,100.6375 Q2622.2793,101.7041 2622.2793,103.8042 Q2622.2793,105.896 2622.9641,106.9626 Q2623.6489,108.0293 2624.9936,108.0293 Q2625.6245,108.0293 2626.218,107.7595 Q2626.8115,107.4897 2627.4423,106.9087 Z " fill="#000000"/><text fill="#000000" font-family="sans-serif" font-size="14" lengthAdjust="spacing" textLength="135.5566" x="2645.4692" y="108.7793">MHLapPhieuDoiSoat</text><line style="stroke:#9B7B7B;stroke-width:0.5;" x1="2574.04" x2="2819.955" y1="119.4883" y2="119.4883"/><line style="stroke:#9B7B7B;stroke-width:0.5;" x1="2574.04" x2="2819.955" y1="127.4883" y2="127.4883"/><text fill="#000000" font-family="sans-serif" font-size="14" lengthAdjust="spacing" textLength="235.915" x="2579.04" y="145.0234">+taiDanhSachHoSo(tuKhoa: String)</text><text fill="#000000" font-family="sans-serif" font-size="14" lengthAdjust="spacing" textLength="85.6064" x="2579.04" y="161.5117">+taiChiTiet()</text><text fill="#000000" font-family="sans-serif" font-size="14" lengthAdjust="spacing" textLength="131.0039" x="2579.04" y="178">+taoPhieuDoiSoat()</text></g><!--class LapPhieuDoiSoat--><g class="entity" data-qualified-name="BUS_LAYER.LapPhieuDoiSoat" data-source-line="23" id="ent0004"><rect fill="#F4E3A2" height="113.9531" rx="2.5" ry="2.5" style="stroke:#9B7B7B;stroke-width:0.5;" width="716.3271" x="1938.84" y="291.9583"/><ellipse cx="2236.1486" cy="307.9583" fill="#ADD1B2" rx="11" ry="11" style="stroke:#181818;stroke-width:1;"/><path d="M2238.6217,314.1013 Q2238.0407,314.4002 2237.4015,314.5496 Q2236.7624,314.699 2236.0568,314.699 Q2233.55,314.699 2232.2301,313.0471 Q2230.9103,311.3953 2230.9103,308.2742 Q2230.9103,305.1448 2232.2301,303.4929 Q2233.55,301.8411 2236.0568,301.8411 Q2236.7624,301.8411 2237.4098,301.9905 Q2238.0573,302.1399 2238.6217,302.4388 L2238.6217,305.1614 Q2237.9909,304.5804 2237.3974,304.3106 Q2236.8039,304.0408 2236.173,304.0408 Q2234.8283,304.0408 2234.1435,305.1075 Q2233.4587,306.1741 2233.4587,308.2742 Q2233.4587,310.366 2234.1435,311.4326 Q2234.8283,312.4993 2236.173,312.4993 Q2236.8039,312.4993 2237.3974,312.2295 Q2237.9909,311.9597 2238.6217,311.3787 Z " fill="#000000"/><text fill="#000000" font-family="sans-serif" font-size="14" lengthAdjust="spacing" textLength="113.21" x="2256.6486" y="313.2493">LapPhieuDoiSoat</text><line style="stroke:#9B7B7B;stroke-width:0.5;" x1="1939.84" x2="2654.1671" y1="323.9583" y2="323.9583"/><line style="stroke:#9B7B7B;stroke-width:0.5;" x1="1939.84" x2="2654.1671" y1="331.9583" y2="331.9583"/><text fill="#000000" font-family="sans-serif" font-size="14" lengthAdjust="spacing" textLength="501.7715" x="1944.84" y="349.4934">+LayDanhSachChoDoiSoat(text: String): IReadOnlyList&lt;HoSoChoDoiSoat&gt;</text><text fill="#000000" font-family="sans-serif" font-size="14" lengthAdjust="spacing" textLength="393.9346" x="1944.84" y="365.9817">+LayChiTietVaTinhToan(maHoSo: String, loaiHoSo: String)</text><text fill="#000000" font-family="sans-serif" font-size="14" lengthAdjust="spacing" textLength="704.3271" x="1944.84" y="382.47">+TaoPhieuDoiSoat(maHoSo: String, loaiHoSo: String, ghiChu: String, maNhanVien: String): PhieuDoiSoat</text><text fill="#000000" font-family="sans-serif" font-size="14" lengthAdjust="spacing" textLength="442.8594" x="1944.84" y="398.9583">-LayChiTietVaTinhToanInternal(maHoSo: String, loaiHoSo: String)</text></g><!--class PhieuCoc--><g class="entity" data-qualified-name="BUS_LAYER.PhieuCoc" data-source-line="29" id="ent0005"><rect fill="#F4E3A2" height="146.9297" rx="2.5" ry="2.5" style="stroke:#9B7B7B;stroke-width:0.5;" width="430.7695" x="2821.62" y="513.8883"/><ellipse cx="3001.5453" cy="529.8883" fill="#ADD1B2" rx="11" ry="11" style="stroke:#181818;stroke-width:1;"/><path d="M3004.0184,536.0313 Q3003.4374,536.3302 3002.7982,536.4796 Q3002.1591,536.629 3001.4535,536.629 Q2998.9467,536.629 2997.6268,534.9771 Q2996.307,533.3253 2996.307,530.2042 Q2996.307,527.0748 2997.6268,525.4229 Q2998.9467,523.7711 3001.4535,523.7711 Q3002.1591,523.7711 3002.8065,523.9205 Q3003.454,524.0699 3004.0184,524.3688 L3004.0184,527.0914 Q3003.3876,526.5104 3002.7941,526.2406 Q3002.2006,525.9708 3001.5697,525.9708 Q3000.225,525.9708 2999.5402,527.0375 Q2998.8554,528.1041 2998.8554,530.2042 Q2998.8554,532.296 2999.5402,533.3626 Q3000.225,534.4293 3001.5697,534.4293 Q3002.2006,534.4293 3002.7941,534.1595 Q3003.3876,533.8897 3004.0184,533.3087 Z " fill="#000000"/><text fill="#000000" font-family="sans-serif" font-size="14" lengthAdjust="spacing" textLength="62.4189" x="3022.0453" y="535.1793">PhieuCoc</text><line style="stroke:#9B7B7B;stroke-width:0.5;" x1="2822.62" x2="3251.3895" y1="545.8883" y2="545.8883"/><text fill="#000000" font-family="sans-serif" font-size="14" lengthAdjust="spacing" textLength="125.9795" x="2827.62" y="563.4234">-TrangThai: String</text><text fill="#000000" font-family="sans-serif" font-size="14" lengthAdjust="spacing" textLength="135.5703" x="2827.62" y="579.9117">-TongTien: Decimal</text><text fill="#000000" font-family="sans-serif" font-size="14" lengthAdjust="spacing" textLength="173.8652" x="2827.62" y="596.4">-ThoiDiemHuy: DateTime</text><line style="stroke:#9B7B7B;stroke-width:0.5;" x1="2822.62" x2="3251.3895" y1="603.3531" y2="603.3531"/><text fill="#000000" font-family="sans-serif" font-size="14" lengthAdjust="spacing" textLength="418.7695" x="2827.62" y="620.8883">+LayDanhSachDaHuyChoDoiSoat(): IReadOnlyList&lt;PhieuCoc&gt;</text><text fill="#000000" font-family="sans-serif" font-size="14" lengthAdjust="spacing" textLength="298.1768" x="2827.62" y="637.3766">+DocChiTiet(maPhieuCoc: String): PhieuCoc</text><text fill="#000000" font-family="sans-serif" font-size="14" lengthAdjust="spacing" textLength="233.2354" x="2827.62" y="653.8648">+KiemTraCoTheDoiSoatHoanCoc()</text></g><!--class PhieuThu--><g class="entity" data-qualified-name="BUS_LAYER.PhieuThu" data-source-line="37" id="ent0006"><rect fill="#F4E3A2" height="97.4648" rx="2.5" ry="2.5" style="stroke:#9B7B7B;stroke-width:0.5;" width="355.2051" x="2411.4" y="538.6183"/><ellipse cx="2553.1568" cy="554.6183" fill="#ADD1B2" rx="11" ry="11" style="stroke:#181818;stroke-width:1;"/><path d="M2555.63,560.7613 Q2555.0489,561.0602 2554.4098,561.2096 Q2553.7706,561.359 2553.065,561.359 Q2550.5582,561.359 2549.2384,559.7071 Q2547.9186,558.0553 2547.9186,554.9342 Q2547.9186,551.8048 2549.2384,550.1529 Q2550.5582,548.5011 2553.065,548.5011 Q2553.7706,548.5011 2554.4181,548.6505 Q2555.0655,548.7999 2555.63,549.0988 L2555.63,551.8214 Q2554.9991,551.2404 2554.4056,550.9706 Q2553.8121,550.7008 2553.1813,550.7008 Q2551.8365,550.7008 2551.1517,551.7675 Q2550.4669,552.8341 2550.4669,554.9342 Q2550.4669,557.026 2551.1517,558.0926 Q2551.8365,559.1593 2553.1813,559.1593 Q2553.8121,559.1593 2554.4056,558.8895 Q2554.9991,558.6197 2555.63,558.0387 Z " fill="#000000"/><text fill="#000000" font-family="sans-serif" font-size="14" lengthAdjust="spacing" textLength="63.1914" x="2573.6568" y="559.9093">PhieuThu</text><line style="stroke:#9B7B7B;stroke-width:0.5;" x1="2412.4" x2="2765.6051" y1="570.6183" y2="570.6183"/><text fill="#000000" font-family="sans-serif" font-size="14" lengthAdjust="spacing" textLength="143.0693" x="2417.4" y="588.1534">-SoTienThu: Decimal</text><line style="stroke:#9B7B7B;stroke-width:0.5;" x1="2412.4" x2="2765.6051" y1="595.1066" y2="595.1066"/><text fill="#000000" font-family="sans-serif" font-size="14" lengthAdjust="spacing" textLength="343.2051" x="2417.4" y="612.6417">+LayTheoPhieuCoc(maPhieuCoc: String): PhieuThu</text><text fill="#000000" font-family="sans-serif" font-size="14" lengthAdjust="spacing" textLength="301.458" x="2417.4" y="629.13">+KiemTraKhopTienCoc(phieuCoc: PhieuCoc)</text></g><!--class HopDong--><g class="entity" data-qualified-name="BUS_LAYER.HopDong" data-source-line="42" id="ent0007"><rect fill="#F4E3A2" height="130.4414" rx="2.5" ry="2.5" style="stroke:#9B7B7B;stroke-width:0.5;" width="388.0449" x="30.98" y="522.1283"/><ellipse cx="188.6509" cy="538.1283" fill="#ADD1B2" rx="11" ry="11" style="stroke:#181818;stroke-width:1;"/><path d="M191.124,544.2713 Q190.543,544.5702 189.9038,544.7196 Q189.2647,544.869 188.5591,544.869 Q186.0523,544.869 184.7324,543.2171 Q183.4126,541.5653 183.4126,538.4442 Q183.4126,535.3148 184.7324,533.6629 Q186.0523,532.0111 188.5591,532.0111 Q189.2647,532.0111 189.9121,532.1605 Q190.5596,532.3099 191.124,532.6088 L191.124,535.3314 Q190.4932,534.7504 189.8997,534.4806 Q189.3062,534.2108 188.6753,534.2108 Q187.3306,534.2108 186.6458,535.2775 Q185.961,536.3441 185.961,538.4442 Q185.961,540.536 186.6458,541.6026 Q187.3306,542.6693 188.6753,542.6693 Q189.3062,542.6693 189.8997,542.3995 Q190.4932,542.1297 191.124,541.5487 Z " fill="#000000"/><text fill="#000000" font-family="sans-serif" font-size="14" lengthAdjust="spacing" textLength="64.2031" x="209.1509" y="543.4193">HopDong</text><line style="stroke:#9B7B7B;stroke-width:0.5;" x1="31.98" x2="418.0249" y1="554.1283" y2="554.1283"/><line style="stroke:#9B7B7B;stroke-width:0.5;" x1="31.98" x2="418.0249" y1="562.1283" y2="562.1283"/><text fill="#000000" font-family="sans-serif" font-size="14" lengthAdjust="spacing" textLength="376.0449" x="36.98" y="579.6634">+LayDanhSachChoDoiSoat(): IReadOnlyList&lt;HopDong&gt;</text><text fill="#000000" font-family="sans-serif" font-size="14" lengthAdjust="spacing" textLength="319.4707" x="36.98" y="596.1517">+LayThongTinLuuTru(maHD: String): HopDong</text><text fill="#000000" font-family="sans-serif" font-size="14" lengthAdjust="spacing" textLength="357.793" x="36.98" y="612.64">+TonTaiTheoPhieuCoc(maPhieuCoc: String): Boolean</text><text fill="#000000" font-family="sans-serif" font-size="14" lengthAdjust="spacing" textLength="374.8555" x="36.98" y="629.1283">+TinhSoThangThucTe(ngayDoiSoat: DateTime): Integer</text><text fill="#000000" font-family="sans-serif" font-size="14" lengthAdjust="spacing" textLength="230.4189" x="36.98" y="645.6166">+TinhSoThangHopDong(): Integer</text></g><!--class ChinhSachHoanCoc--><g class="entity" data-qualified-name="BUS_LAYER.ChinhSachHoanCoc" data-source-line="49" id="ent0008"><rect fill="#F4E3A2" height="113.9531" rx="2.5" ry="2.5" style="stroke:#9B7B7B;stroke-width:0.5;" width="571.4805" x="474.26" y="530.3783"/><ellipse cx="689.9031" cy="546.3783" fill="#ADD1B2" rx="11" ry="11" style="stroke:#181818;stroke-width:1;"/><path d="M692.3762,552.5213 Q691.7952,552.8202 691.156,552.9696 Q690.5168,553.119 689.8113,553.119 Q687.3044,553.119 685.9846,551.4671 Q684.6648,549.8153 684.6648,546.6942 Q684.6648,543.5648 685.9846,541.9129 Q687.3044,540.2611 689.8113,540.2611 Q690.5168,540.2611 691.1643,540.4105 Q691.8118,540.5599 692.3762,540.8588 L692.3762,543.5814 Q691.7454,543.0004 691.1518,542.7306 Q690.5583,542.4608 689.9275,542.4608 Q688.5828,542.4608 687.8979,543.5275 Q687.2131,544.5941 687.2131,546.6942 Q687.2131,548.786 687.8979,549.8526 Q688.5828,550.9193 689.9275,550.9193 Q690.5583,550.9193 691.1518,550.6495 Q691.7454,550.3797 692.3762,549.7987 Z " fill="#000000"/><text fill="#000000" font-family="sans-serif" font-size="14" lengthAdjust="spacing" textLength="131.6943" x="710.4031" y="551.6693">ChinhSachHoanCoc</text><line style="stroke:#9B7B7B;stroke-width:0.5;" x1="475.26" x2="1044.7405" y1="562.3783" y2="562.3783"/><text fill="#000000" font-family="sans-serif" font-size="14" lengthAdjust="spacing" textLength="157.7256" x="480.26" y="579.9134">-TiLe_ChuaKy: Decimal</text><line style="stroke:#9B7B7B;stroke-width:0.5;" x1="475.26" x2="1044.7405" y1="586.8666" y2="586.8666"/><text fill="#000000" font-family="sans-serif" font-size="14" lengthAdjust="spacing" textLength="448.4307" x="480.26" y="604.4017">+LayChinhSachDangApDung(ngay: DateOnly): ChinhSachHoanCoc</text><text fill="#000000" font-family="sans-serif" font-size="14" lengthAdjust="spacing" textLength="448.5195" x="480.26" y="620.89">+LayChinhSachTheoMa(maChinhSach: String): ChinhSachHoanCoc</text><text fill="#000000" font-family="sans-serif" font-size="14" lengthAdjust="spacing" textLength="559.4805" x="480.26" y="637.3783">+XacDinhTyLeHoan(soThangThucTe: Integer, soThangHopDong: Integer): Decimal</text></g><!--class HoaDon--><g class="entity" data-qualified-name="BUS_LAYER.HoaDon" data-source-line="55" id="ent0009"><rect fill="#F4E3A2" height="64.4883" rx="2.5" ry="2.5" style="stroke:#9B7B7B;stroke-width:0.5;" width="500.7422" x="1100.63" y="555.1083"/><ellipse cx="1319.5543" cy="571.1083" fill="#ADD1B2" rx="11" ry="11" style="stroke:#181818;stroke-width:1;"/><path d="M1322.0275,577.2513 Q1321.4464,577.5502 1320.8072,577.6996 Q1320.1681,577.849 1319.4625,577.849 Q1316.9557,577.849 1315.6359,576.1971 Q1314.316,574.5453 1314.316,571.4242 Q1314.316,568.2948 1315.6359,566.6429 Q1316.9557,564.9911 1319.4625,564.9911 Q1320.1681,564.9911 1320.8155,565.1405 Q1321.463,565.2899 1322.0275,565.5888 L1322.0275,568.3114 Q1321.3966,567.7304 1320.8031,567.4606 Q1320.2096,567.1908 1319.5787,567.1908 Q1318.234,567.1908 1317.5492,568.2575 Q1316.8644,569.3241 1316.8644,571.4242 Q1316.8644,573.516 1317.5492,574.5826 Q1318.234,575.6493 1319.5787,575.6493 Q1320.2096,575.6493 1320.8031,575.3795 Q1321.3966,575.1097 1322.0275,574.5287 Z " fill="#000000"/><text fill="#000000" font-family="sans-serif" font-size="14" lengthAdjust="spacing" textLength="54.3936" x="1340.0543" y="576.3993">HoaDon</text><line style="stroke:#9B7B7B;stroke-width:0.5;" x1="1101.63" x2="1600.3722" y1="587.1083" y2="587.1083"/><line style="stroke:#9B7B7B;stroke-width:0.5;" x1="1101.63" x2="1600.3722" y1="595.1083" y2="595.1083"/><text fill="#000000" font-family="sans-serif" font-size="14" lengthAdjust="spacing" textLength="488.7422" x="1106.63" y="612.6434">+LayDanhSachChuaThanhToan(maHD: String): IReadOnlyList&lt;HoaDon&gt;</text></g><!--class PhieuDoiSoat--><g class="entity" data-qualified-name="BUS_LAYER.PhieuDoiSoat" data-source-line="58" id="ent0010"><rect fill="#F4E3A2" height="212.8828" rx="2.5" ry="2.5" style="stroke:#9B7B7B;stroke-width:0.5;" width="699.8457" x="1656.08" y="480.9083"/><ellipse cx="1957.1518" cy="496.9083" fill="#ADD1B2" rx="11" ry="11" style="stroke:#181818;stroke-width:1;"/><path d="M1959.6249,503.0513 Q1959.0439,503.3502 1958.4047,503.4996 Q1957.7655,503.649 1957.06,503.649 Q1954.5531,503.649 1953.2333,501.9971 Q1951.9135,500.3453 1951.9135,497.2242 Q1951.9135,494.0948 1953.2333,492.4429 Q1954.5531,490.7911 1957.06,490.7911 Q1957.7655,490.7911 1958.413,490.9405 Q1959.0605,491.0899 1959.6249,491.3887 L1959.6249,494.1114 Q1958.9941,493.5304 1958.4006,493.2606 Q1957.8071,492.9908 1957.1762,492.9908 Q1955.8315,492.9908 1955.1467,494.0575 Q1954.4618,495.1241 1954.4618,497.2242 Q1954.4618,499.316 1955.1467,500.3826 Q1955.8315,501.4493 1957.1762,501.4493 Q1957.8071,501.4493 1958.4006,501.1795 Q1958.9941,500.9097 1959.6249,500.3287 Z " fill="#000000"/><text fill="#000000" font-family="sans-serif" font-size="14" lengthAdjust="spacing" textLength="89.2021" x="1977.6518" y="502.1993">PhieuDoiSoat</text><line style="stroke:#9B7B7B;stroke-width:0.5;" x1="1657.08" x2="2354.9257" y1="512.9083" y2="512.9083"/><text fill="#000000" font-family="sans-serif" font-size="14" lengthAdjust="spacing" textLength="125.9795" x="1662.08" y="530.4434">-TrangThai: String</text><text fill="#000000" font-family="sans-serif" font-size="14" lengthAdjust="spacing" textLength="136.0078" x="1662.08" y="546.9317">-TienHoan: Decimal</text><text fill="#000000" font-family="sans-serif" font-size="14" lengthAdjust="spacing" textLength="165.3408" x="1662.08" y="563.42">-TienThuThem: Decimal</text><line style="stroke:#9B7B7B;stroke-width:0.5;" x1="1657.08" x2="2354.9257" y1="570.3731" y2="570.3731"/><text fill="#000000" font-family="sans-serif" font-size="14" lengthAdjust="spacing" textLength="687.8457" x="1662.08" y="587.9083">+TaoMoi(maPhieuCoc: String, maHD: String, maNhanVien: String, thoiDiem: DateTime): PhieuDoiSoat</text><text fill="#000000" font-family="sans-serif" font-size="14" lengthAdjust="spacing" textLength="402.0762" x="1662.08" y="604.3966">+TonTaiChoPhieuCocChuaKy(maPhieuCoc: String): Boolean</text><text fill="#000000" font-family="sans-serif" font-size="14" lengthAdjust="spacing" textLength="298.0195" x="1662.08" y="620.8848">+ApDungChinhSachHoanCoc(tyLe: Decimal)</text><text fill="#000000" font-family="sans-serif" font-size="14" lengthAdjust="spacing" textLength="294.8818" x="1662.08" y="637.3731">+TinhTongKhauTru(tongKhauTru: Decimal)</text><text fill="#000000" font-family="sans-serif" font-size="14" lengthAdjust="spacing" textLength="607.7012" x="1662.08" y="653.8614">+TinhToanDoiSoat(tienCoc: Decimal, tyLe: Decimal, dsHoaDon: IReadOnlyList&lt;HoaDon&gt;)</text><text fill="#000000" font-family="sans-serif" font-size="14" lengthAdjust="spacing" textLength="216.3574" x="1662.08" y="670.3497">+ChotKetQua(tienCoc: Decimal)</text><text fill="#000000" font-family="sans-serif" font-size="14" lengthAdjust="spacing" textLength="82.0381" x="1662.08" y="686.838">+LuuPhieu()</text></g><!--class PhieuCocDB--><g class="entity" data-qualified-name="DAL_LAYER.PhieuCocDB" data-source-line="73" id="ent0012"><rect fill="#BFDCF0" height="80.9766" rx="2.5" ry="2.5" style="stroke:#9B7B7B;stroke-width:0.5;" width="430.7695" x="2733.62" y="809.0383"/><ellipse cx="2904.2758" cy="825.0383" fill="#ADD1B2" rx="11" ry="11" style="stroke:#181818;stroke-width:1;"/><path d="M2906.7489,831.1813 Q2906.1679,831.4802 2905.5287,831.6296 Q2904.8895,831.779 2904.184,831.779 Q2901.6771,831.779 2900.3573,830.1271 Q2899.0375,828.4753 2899.0375,825.3542 Q2899.0375,822.2248 2900.3573,820.5729 Q2901.6771,818.9211 2904.184,818.9211 Q2904.8895,818.9211 2905.537,819.0705 Q2906.1845,819.2199 2906.7489,819.5188 L2906.7489,822.2414 Q2906.118,821.6604 2905.5245,821.3906 Q2904.931,821.1208 2904.3002,821.1208 Q2902.9554,821.1208 2902.2706,822.1875 Q2901.5858,823.2541 2901.5858,825.3542 Q2901.5858,827.446 2902.2706,828.5126 Q2902.9554,829.5793 2904.3002,829.5793 Q2904.931,829.5793 2905.5245,829.3095 Q2906.118,829.0397 2906.7489,828.4587 Z " fill="#000000"/><text fill="#000000" font-family="sans-serif" font-size="14" lengthAdjust="spacing" textLength="80.958" x="2924.7758" y="830.3293">PhieuCocDB</text><line style="stroke:#9B7B7B;stroke-width:0.5;" x1="2734.62" x2="3163.3895" y1="841.0383" y2="841.0383"/><line style="stroke:#9B7B7B;stroke-width:0.5;" x1="2734.62" x2="3163.3895" y1="849.0383" y2="849.0383"/><text fill="#000000" font-family="sans-serif" font-size="14" lengthAdjust="spacing" textLength="418.7695" x="2739.62" y="866.5734">+LayDanhSachDaHuyChoDoiSoat(): IReadOnlyList&lt;PhieuCoc&gt;</text><text fill="#000000" font-family="sans-serif" font-size="14" lengthAdjust="spacing" textLength="298.1768" x="2739.62" y="883.0617">+DocChiTiet(maPhieuCoc: String): PhieuCoc</text></g><!--class PhieuThuDB--><g class="entity" data-qualified-name="DAL_LAYER.PhieuThuDB" data-source-line="77" id="ent0013"><rect fill="#BFDCF0" height="64.4883" rx="2.5" ry="2.5" style="stroke:#9B7B7B;stroke-width:0.5;" width="355.2051" x="2323.4" y="817.2783"/><ellipse cx="2455.8873" cy="833.2783" fill="#ADD1B2" rx="11" ry="11" style="stroke:#181818;stroke-width:1;"/><path d="M2458.3604,839.4213 Q2457.7794,839.7202 2457.1402,839.8696 Q2456.5011,840.019 2455.7955,840.019 Q2453.2887,840.019 2451.9688,838.3671 Q2450.649,836.7153 2450.649,833.5942 Q2450.649,830.4648 2451.9688,828.8129 Q2453.2887,827.1611 2455.7955,827.1611 Q2456.5011,827.1611 2457.1485,827.3105 Q2457.796,827.4599 2458.3604,827.7588 L2458.3604,830.4814 Q2457.7296,829.9004 2457.1361,829.6306 Q2456.5426,829.3608 2455.9117,829.3608 Q2454.567,829.3608 2453.8822,830.4275 Q2453.1974,831.4941 2453.1974,833.5942 Q2453.1974,835.686 2453.8822,836.7526 Q2454.567,837.8193 2455.9117,837.8193 Q2456.5426,837.8193 2457.1361,837.5495 Q2457.7296,837.2797 2458.3604,836.6987 Z " fill="#000000"/><text fill="#000000" font-family="sans-serif" font-size="14" lengthAdjust="spacing" textLength="81.7305" x="2476.3873" y="838.5693">PhieuThuDB</text><line style="stroke:#9B7B7B;stroke-width:0.5;" x1="2324.4" x2="2677.6051" y1="849.2783" y2="849.2783"/><line style="stroke:#9B7B7B;stroke-width:0.5;" x1="2324.4" x2="2677.6051" y1="857.2783" y2="857.2783"/><text fill="#000000" font-family="sans-serif" font-size="14" lengthAdjust="spacing" textLength="343.2051" x="2329.4" y="874.8134">+LayTheoPhieuCoc(maPhieuCoc: String): PhieuThu</text></g><!--class HopDongDB--><g class="entity" data-qualified-name="DAL_LAYER.HopDongDB" data-source-line="80" id="ent0014"><rect fill="#BFDCF0" height="97.4648" rx="2.5" ry="2.5" style="stroke:#9B7B7B;stroke-width:0.5;" width="388.0449" x="283.98" y="800.7983"/><ellipse cx="432.3814" cy="816.7983" fill="#ADD1B2" rx="11" ry="11" style="stroke:#181818;stroke-width:1;"/><path d="M434.8545,822.9413 Q434.2735,823.2402 433.6343,823.3896 Q432.9951,823.539 432.2896,823.539 Q429.7827,823.539 428.4629,821.8871 Q427.1431,820.2353 427.1431,817.1142 Q427.1431,813.9848 428.4629,812.3329 Q429.7827,810.6811 432.2896,810.6811 Q432.9951,810.6811 433.6426,810.8305 Q434.2901,810.9799 434.8545,811.2788 L434.8545,814.0014 Q434.2237,813.4204 433.6301,813.1506 Q433.0366,812.8808 432.4058,812.8808 Q431.0611,812.8808 430.3762,813.9475 Q429.6914,815.0141 429.6914,817.1142 Q429.6914,819.206 430.3762,820.2726 Q431.0611,821.3393 432.4058,821.3393 Q433.0366,821.3393 433.6301,821.0695 Q434.2237,820.7997 434.8545,820.2187 Z " fill="#000000"/><text fill="#000000" font-family="sans-serif" font-size="14" lengthAdjust="spacing" textLength="82.7422" x="452.8814" y="822.0893">HopDongDB</text><line style="stroke:#9B7B7B;stroke-width:0.5;" x1="284.98" x2="671.0249" y1="832.7983" y2="832.7983"/><line style="stroke:#9B7B7B;stroke-width:0.5;" x1="284.98" x2="671.0249" y1="840.7983" y2="840.7983"/><text fill="#000000" font-family="sans-serif" font-size="14" lengthAdjust="spacing" textLength="376.0449" x="289.98" y="858.3334">+LayDanhSachChoDoiSoat(): IReadOnlyList&lt;HopDong&gt;</text><text fill="#000000" font-family="sans-serif" font-size="14" lengthAdjust="spacing" textLength="319.4707" x="289.98" y="874.8217">+LayThongTinLuuTru(maHD: String): HopDong</text><text fill="#000000" font-family="sans-serif" font-size="14" lengthAdjust="spacing" textLength="357.793" x="289.98" y="891.31">+TonTaiTheoPhieuCoc(maPhieuCoc: String): Boolean</text></g><!--class ChinhSachHoanCocDB--><g class="entity" data-qualified-name="DAL_LAYER.ChinhSachHoanCocDB" data-source-line="85" id="ent0015"><rect fill="#BFDCF0" height="80.9766" rx="2.5" ry="2.5" style="stroke:#9B7B7B;stroke-width:0.5;" width="461.1621" x="727.42" y="809.0383"/><ellipse cx="878.6344" cy="825.0383" fill="#ADD1B2" rx="11" ry="11" style="stroke:#181818;stroke-width:1;"/><path d="M881.1075,831.1813 Q880.5264,831.4802 879.8873,831.6296 Q879.2481,831.779 878.5426,831.779 Q876.0357,831.779 874.7159,830.1271 Q873.3961,828.4753 873.3961,825.3542 Q873.3961,822.2248 874.7159,820.5729 Q876.0357,818.9211 878.5426,818.9211 Q879.2481,818.9211 879.8956,819.0705 Q880.543,819.2199 881.1075,819.5188 L881.1075,822.2414 Q880.4766,821.6604 879.8831,821.3906 Q879.2896,821.1208 878.6588,821.1208 Q877.314,821.1208 876.6292,822.1875 Q875.9444,823.2541 875.9444,825.3542 Q875.9444,827.446 876.6292,828.5126 Q877.314,829.5793 878.6588,829.5793 Q879.2896,829.5793 879.8831,829.3095 Q880.4766,829.0397 881.1075,828.4587 Z " fill="#000000"/><text fill="#000000" font-family="sans-serif" font-size="14" lengthAdjust="spacing" textLength="150.2334" x="899.1344" y="830.3293">ChinhSachHoanCocDB</text><line style="stroke:#9B7B7B;stroke-width:0.5;" x1="728.42" x2="1187.5821" y1="841.0383" y2="841.0383"/><line style="stroke:#9B7B7B;stroke-width:0.5;" x1="728.42" x2="1187.5821" y1="849.0383" y2="849.0383"/><text fill="#000000" font-family="sans-serif" font-size="14" lengthAdjust="spacing" textLength="448.4307" x="733.42" y="866.5734">+LayChinhSachDangApDung(ngay: DateOnly): ChinhSachHoanCoc</text><text fill="#000000" font-family="sans-serif" font-size="14" lengthAdjust="spacing" textLength="449.1621" x="733.42" y="883.0617">+GetChinhSachTheoMa(maChinhSach: String): ChinhSachHoanCoc</text></g><!--class HoaDonDB--><g class="entity" data-qualified-name="DAL_LAYER.HoaDonDB" data-source-line="89" id="ent0016"><rect fill="#BFDCF0" height="64.4883" rx="2.5" ry="2.5" style="stroke:#9B7B7B;stroke-width:0.5;" width="555.457" x="1243.27" y="817.2783"/><ellipse cx="1480.2822" cy="833.2783" fill="#ADD1B2" rx="11" ry="11" style="stroke:#181818;stroke-width:1;"/><path d="M1482.7554,839.4213 Q1482.1743,839.7202 1481.5351,839.8696 Q1480.896,840.019 1480.1904,840.019 Q1477.6836,840.019 1476.3638,838.3671 Q1475.0439,836.7153 1475.0439,833.5942 Q1475.0439,830.4648 1476.3638,828.8129 Q1477.6836,827.1611 1480.1904,827.1611 Q1480.896,827.1611 1481.5434,827.3105 Q1482.1909,827.4599 1482.7554,827.7588 L1482.7554,830.4814 Q1482.1245,829.9004 1481.531,829.6306 Q1480.9375,829.3608 1480.3066,829.3608 Q1478.9619,829.3608 1478.2771,830.4275 Q1477.5923,831.4941 1477.5923,833.5942 Q1477.5923,835.686 1478.2771,836.7526 Q1478.9619,837.8193 1480.3066,837.8193 Q1480.9375,837.8193 1481.531,837.5495 Q1482.1245,837.2797 1482.7554,836.6987 Z " fill="#000000"/><text fill="#000000" font-family="sans-serif" font-size="14" lengthAdjust="spacing" textLength="72.9326" x="1500.7822" y="838.5693">HoaDonDB</text><line style="stroke:#9B7B7B;stroke-width:0.5;" x1="1244.27" x2="1797.727" y1="849.2783" y2="849.2783"/><line style="stroke:#9B7B7B;stroke-width:0.5;" x1="1244.27" x2="1797.727" y1="857.2783" y2="857.2783"/><text fill="#000000" font-family="sans-serif" font-size="14" lengthAdjust="spacing" textLength="543.457" x="1249.27" y="874.8134">+LayDanhSachChuaThanhToanTheoHD(maHD: String): IReadOnlyList&lt;HoaDon&gt;</text></g><!--class PhieuDoiSoatDB--><g class="entity" data-qualified-name="DAL_LAYER.PhieuDoiSoatDB" data-source-line="92" id="ent0017"><rect fill="#BFDCF0" height="80.9766" rx="2.5" ry="2.5" style="stroke:#9B7B7B;stroke-width:0.5;" width="414.0762" x="1853.96" y="809.0383"/><ellipse cx="2002.8775" cy="825.0383" fill="#ADD1B2" rx="11" ry="11" style="stroke:#181818;stroke-width:1;"/><path d="M2005.3506,831.1813 Q2004.7696,831.4802 2004.1304,831.6296 Q2003.4913,831.779 2002.7857,831.779 Q2000.2788,831.779 1998.959,830.1271 Q1997.6392,828.4753 1997.6392,825.3542 Q1997.6392,822.2248 1998.959,820.5729 Q2000.2788,818.9211 2002.7857,818.9211 Q2003.4913,818.9211 2004.1387,819.0705 Q2004.7862,819.2199 2005.3506,819.5188 L2005.3506,822.2414 Q2004.7198,821.6604 2004.1263,821.3906 Q2003.5328,821.1208 2002.9019,821.1208 Q2001.5572,821.1208 2000.8724,822.1875 Q2000.1875,823.2541 2000.1875,825.3542 Q2000.1875,827.446 2000.8724,828.5126 Q2001.5572,829.5793 2002.9019,829.5793 Q2003.5328,829.5793 2004.1263,829.3095 Q2004.7198,829.0397 2005.3506,828.4587 Z " fill="#000000"/><text fill="#000000" font-family="sans-serif" font-size="14" lengthAdjust="spacing" textLength="107.7412" x="2023.3775" y="830.3293">PhieuDoiSoatDB</text><line style="stroke:#9B7B7B;stroke-width:0.5;" x1="1854.96" x2="2267.0362" y1="841.0383" y2="841.0383"/><line style="stroke:#9B7B7B;stroke-width:0.5;" x1="1854.96" x2="2267.0362" y1="849.0383" y2="849.0383"/><text fill="#000000" font-family="sans-serif" font-size="14" lengthAdjust="spacing" textLength="402.0762" x="1859.96" y="866.5734">+TonTaiChoPhieuCocChuaKy(maPhieuCoc: String): Boolean</text><text fill="#000000" font-family="sans-serif" font-size="14" lengthAdjust="spacing" textLength="218.1348" x="1859.96" y="883.0617">+LuuPhieu(phieu: PhieuDoiSoat)</text></g><!--reverse link MHLapPhieuDoiSoat to LapPhieuDoiSoat--><g class="link" data-entity-1="ent0002" data-entity-2="ent0004" data-link-type="aggregation" data-source-line="98" id="lnk18"><path codeLine="98" d="M2614.1,197.2883 C2614.1,229.0683 2614.1,258.5683 2614.1,291.8283" fill="none" id="MHLapPhieuDoiSoat-backto-LapPhieuDoiSoat" style="stroke:#181818;stroke-width:1;"/><polygon fill="none" points="2614.1,185.2883,2610.1,191.2883,2614.1,197.2883,2618.1,191.2883,2614.1,185.2883" style="stroke:#181818;stroke-width:1;stroke-linejoin:miter;stroke-miterlimit:10;"/></g><!--reverse link LapPhieuDoiSoat to PhieuCoc--><g class="link" data-entity-1="ent0004" data-entity-2="ent0005" data-link-type="aggregation" data-source-line="99" id="lnk19"><path codeLine="99" d="M2667.49,368.2583 C2772.79,368.2583 2848.31,368.2583 2848.31,368.2583 C2848.31,368.2583 2848.31,449.8783 2848.31,513.4783" fill="none" id="LapPhieuDoiSoat-backto-PhieuCoc" style="stroke:#181818;stroke-width:1;"/><polygon fill="none" points="2655.49,368.2583,2661.49,372.2583,2667.49,368.2583,2661.49,364.2583,2655.49,368.2583" style="stroke:#181818;stroke-width:1;stroke-linejoin:miter;stroke-miterlimit:10;"/></g><!--reverse link LapPhieuDoiSoat to PhieuThu--><g class="link" data-entity-1="ent0004" data-entity-2="ent0006" data-link-type="aggregation" data-source-line="100" id="lnk20"><path codeLine="100" d="M2533.28,418.3483 C2533.28,458.7183 2533.28,500.1583 2533.28,538.4883" fill="none" id="LapPhieuDoiSoat-backto-PhieuThu" style="stroke:#181818;stroke-width:1;"/><polygon fill="none" points="2533.28,406.3483,2529.28,412.3483,2533.28,418.3483,2537.28,412.3483,2533.28,406.3483" style="stroke:#181818;stroke-width:1;stroke-linejoin:miter;stroke-miterlimit:10;"/></g><!--reverse link LapPhieuDoiSoat to HopDong--><g class="link" data-entity-1="ent0004" data-entity-2="ent0007" data-link-type="aggregation" data-source-line="101" id="lnk21"><path codeLine="101" d="M1926.45,320.2583 C1333.42,320.2583 225,320.2583 225,320.2583 C225,320.2583 225,442.5883 225,521.6683" fill="none" id="LapPhieuDoiSoat-backto-HopDong" style="stroke:#181818;stroke-width:1;"/><polygon fill="none" points="1938.45,320.2583,1932.45,316.2583,1926.45,320.2583,1932.45,324.2583,1938.45,320.2583" style="stroke:#181818;stroke-width:1;stroke-linejoin:miter;stroke-miterlimit:10;"/></g><!--reverse link LapPhieuDoiSoat to ChinhSachHoanCoc--><g class="link" data-entity-1="ent0004" data-entity-2="ent0008" data-link-type="aggregation" data-source-line="102" id="lnk22"><path codeLine="102" d="M1926.58,349.2583 C1472.41,349.2583 760,349.2583 760,349.2583 C760,349.2583 760,459.5683 760,530.0183" fill="none" id="LapPhieuDoiSoat-backto-ChinhSachHoanCoc" style="stroke:#181818;stroke-width:1;"/><polygon fill="none" points="1938.58,349.2583,1932.58,345.2583,1926.58,349.2583,1932.58,353.2583,1938.58,349.2583" style="stroke:#181818;stroke-width:1;stroke-linejoin:miter;stroke-miterlimit:10;"/></g><!--reverse link LapPhieuDoiSoat to HoaDon--><g class="link" data-entity-1="ent0004" data-entity-2="ent0009" data-link-type="aggregation" data-source-line="103" id="lnk23"><path codeLine="103" d="M1926.35,377.2583 C1658.66,377.2583 1351,377.2583 1351,377.2583 C1351,377.2583 1351,496.0483 1351,554.9883" fill="none" id="LapPhieuDoiSoat-backto-HoaDon" style="stroke:#181818;stroke-width:1;"/><polygon fill="none" points="1938.35,377.2583,1932.35,373.2583,1926.35,377.2583,1932.35,381.2583,1938.35,377.2583" style="stroke:#181818;stroke-width:1;stroke-linejoin:miter;stroke-miterlimit:10;"/></g><!--reverse link LapPhieuDoiSoat to PhieuDoiSoat--><g class="link" data-entity-1="ent0004" data-entity-2="ent0010" data-link-type="aggregation" data-source-line="104" id="lnk24"><path codeLine="104" d="M2147.38,418.3483 C2147.38,440.6683 2147.38,454.9883 2147.38,480.5383" fill="none" id="LapPhieuDoiSoat-backto-PhieuDoiSoat" style="stroke:#181818;stroke-width:1;"/><polygon fill="none" points="2147.38,406.3483,2143.38,412.3483,2147.38,418.3483,2151.38,412.3483,2147.38,406.3483" style="stroke:#181818;stroke-width:1;stroke-linejoin:miter;stroke-miterlimit:10;"/></g><!--reverse link PhieuCoc to PhieuCocDB--><g class="link" data-entity-1="ent0005" data-entity-2="ent0012" data-link-type="aggregation" data-source-line="105" id="lnk25"><path codeLine="105" d="M2993,673.0783 C2993,720.9383 2993,769.5083 2993,808.8583" fill="none" id="PhieuCoc-backto-PhieuCocDB" style="stroke:#181818;stroke-width:1;"/><polygon fill="none" points="2993,661.0783,2989,667.0783,2993,673.0783,2997,667.0783,2993,661.0783" style="stroke:#181818;stroke-width:1;stroke-linejoin:miter;stroke-miterlimit:10;"/></g><!--reverse link PhieuThu to PhieuThuDB--><g class="link" data-entity-1="ent0006" data-entity-2="ent0013" data-link-type="aggregation" data-source-line="106" id="lnk26"><path codeLine="106" d="M2545,648.3583 C2545,701.1183 2545,771.5683 2545,816.9083" fill="none" id="PhieuThu-backto-PhieuThuDB" style="stroke:#181818;stroke-width:1;"/><polygon fill="none" points="2545,636.3583,2541,642.3583,2545,648.3583,2549,642.3583,2545,636.3583" style="stroke:#181818;stroke-width:1;stroke-linejoin:miter;stroke-miterlimit:10;"/></g><!--reverse link HopDong to HopDongDB--><g class="link" data-entity-1="ent0007" data-entity-2="ent0014" data-link-type="aggregation" data-source-line="107" id="lnk27"><path codeLine="107" d="M351.5,664.8383 C351.5,710.6383 351.5,758.8383 351.5,800.5183" fill="none" id="HopDong-backto-HopDongDB" style="stroke:#181818;stroke-width:1;"/><polygon fill="none" points="351.5,652.8383,347.5,658.8383,351.5,664.8383,355.5,658.8383,351.5,652.8383" style="stroke:#181818;stroke-width:1;stroke-linejoin:miter;stroke-miterlimit:10;"/></g><!--reverse link ChinhSachHoanCoc to ChinhSachHoanCocDB--><g class="link" data-entity-1="ent0008" data-entity-2="ent0015" data-link-type="aggregation" data-source-line="108" id="lnk28"><path codeLine="108" d="M886.58,656.5583 C886.58,706.1283 886.58,764.6283 886.58,808.6883" fill="none" id="ChinhSachHoanCoc-backto-ChinhSachHoanCocDB" style="stroke:#181818;stroke-width:1;"/><polygon fill="none" points="886.58,644.5583,882.58,650.5583,886.58,656.5583,890.58,650.5583,886.58,644.5583" style="stroke:#181818;stroke-width:1;stroke-linejoin:miter;stroke-miterlimit:10;"/></g><!--reverse link HoaDon to HoaDonDB--><g class="link" data-entity-1="ent0009" data-entity-2="ent0016" data-link-type="aggregation" data-source-line="109" id="lnk29"><path codeLine="109" d="M1422.32,632.0283 C1422.32,682.3983 1422.32,766.4783 1422.32,816.8483" fill="none" id="HoaDon-backto-HoaDonDB" style="stroke:#181818;stroke-width:1;"/><polygon fill="none" points="1422.32,620.0283,1418.32,626.0283,1422.32,632.0283,1426.32,626.0283,1422.32,620.0283" style="stroke:#181818;stroke-width:1;stroke-linejoin:miter;stroke-miterlimit:10;"/></g><!--reverse link PhieuDoiSoat to PhieuDoiSoatDB--><g class="link" data-entity-1="ent0010" data-entity-2="ent0017" data-link-type="aggregation" data-source-line="110" id="lnk30"><path codeLine="110" d="M2061,705.9883 C2061,746.3883 2061,778.0083 2061,808.7383" fill="none" id="PhieuDoiSoat-backto-PhieuDoiSoatDB" style="stroke:#181818;stroke-width:1;"/><polygon fill="none" points="2061,693.9883,2057,699.9883,2061,705.9883,2065,699.9883,2061,693.9883" style="stroke:#181818;stroke-width:1;stroke-linejoin:miter;stroke-miterlimit:10;"/></g><!--link GUI_LAYER to BUS_LAYER--><!--link BUS_LAYER to DAL_LAYER--><!--link LapPhieuDoiSoat to PhieuCocDB--><?plantuml-src pLTjRzis4FwkNq4qNnpC1efrRPTY222RVeELn8lbOCKm55UPauZ8f21HwBmX_tr7sfHeINQo1GE6V76EnxldxXu-f1HNAIEhEqBlI72t9Ez8wDzEoO04_f8iP_Fn6bVcwE27df8PKP9ybKh9BTdmd4MAI-4LZrnaaCEM50biv3SkOl8xf0LpLb8kcDfbZCXS9T9P47B32fQHz-yTOmxYKHi_kiOCeaU8sKhj4B7E3I9EtHnH2aNXAvNphwLYyqYA5V-JaRTD5_ANHyWGeyMvBCLc95EPaul9PEAFg5wH-ORb1-lLy2F-UK-UTqXFtfW6JUS-zcm-ldr3e23JzVnBu7yUtvEBCPrSZKScnJxPpIo0R9bmLbB9Ln8KkHXEnZyEVUD3o7T40QSWaXL4oKokP4-LYqJ29xB2IaHyMNkD4XvofdgrIRg1ZVsfZVLsYdDSaeUrmJfShonMBFbg_C71sa8w-M7ypl--GXh0pY8T9TAcLUmFLQ7zHERt33Pt8jq5l50_wOfgt-iwqA6O1mYvI489ehS5xMmZzKagWRiMMtROAFkvVNqI9zYxilv_2xS9Y0VEX8FRZMao3JfXpeLYkO3qHN2VgjQQw2CPDNew826IFGuJu7QVjKiq6uIKHNmBgRKdabFEjhDoXqkWMCYth3qV2kZW3Aar60l8ZeJAoF9h2tQnsHuq7TmN206XZsIOi4EE6NO77NeTXOT9sIfy9NLvePwBMw6f0eDAc_0C7Dny30SFJgQZwcrPjSbkFmOsand57h-Gv1t4DjklNT1cP28eop0lDJ-e0_ZWRpaiHGZy-JA7KgOCXDs57CIs9OOnPHIodeWHxHvYpGQD5LaQixozxm2ZT-HJDmKfO9N83BDDLnwmBtYOOB7hc5kr7JiO-najCPE6kCUcUuTvcpawjkl6t02sfB8uFJcn_nU8g3wZku3fXLxXDgggja-AeqPK2vTkEIvB0DtEawG47R4ICNf637Mmw_Rvw1RSC-A07DT5jiHXVwAmVTlcT50rRoJlO9cMmnfpbpZsYJg8pX77Me9fQOt7nYRPC-KbtDwpfJdRdi9nLgLSEdpM-hX8m1mrLVy-uGkYkgtsyb3vON5kYZxP5FindHYUZOj5gWLJFvVG2cbTK0XCsQSkvl1-_PcCyA55roJ0fvQvdwaVE6-93nFtBM6RI8Vw4K57axTTXFmlfR-jwzrO_f60jpJvV7t_9rK-hPpTDRn68ATC_Mk1R0hQSnrs94sdcj7N2Lj7kbT8HNMkp1L_B4JLKMk_k-LWq7pXUbq-5TrFBchQTYrQDdMjjORI7K3tyNHY2xjwJRfuwT2h7bikLBJRjuu34gsjoxuBfzbjxi0QeCrq2X-kU_KtqU3NX6ysJFo6tuPYK7-0UFMdICEbqi1M9ngETUb_0m00?></g></svg>