<svg xmlns="http://www.w3.org/2000/svg" xmlns:xlink="http://www.w3.org/1999/xlink" contentStyleType="text/css" data-diagram-type="CLASS" height="870px" preserveAspectRatio="none" style="width:2037px;height:870px;background:#FFFFFF;" version="1.1" viewBox="0 0 2037 870" width="2037px" zoomAndPan="magnify"><?plantuml 1.2026.6?><defs/><g><g class="title" data-source-line="1"><text fill="#000000" font-family="sans-serif" font-size="14" font-weight="700" lengthAdjust="spacing" textLength="316.1689" x="856.9155" y="23.5352">SO DO LOP 3 TANG - LAP PHIEU HOAN COC</text></g><!--cluster GUI_LAYER--><g class="cluster" data-qualified-name="GUI_LAYER" data-source-line="14" id="ent0001"><rect fill="#EDF9EC" height="164.46" rx="2.5" ry="2.5" style="stroke:#000000;stroke-width:1.5;" width="281" x="1376" y="44.4883"/><text fill="#000000" font-family="sans-serif" font-size="14" font-weight="700" lengthAdjust="spacing" textLength="122.2197" x="1455.3901" y="60.0234">TANG GIAO DIEN</text></g><!--cluster BUS_LAYER--><g class="cluster" data-qualified-name="BUS_LAYER" data-source-line="21" id="ent0003"><rect fill="#FFF9E6" height="386.4" rx="2.5" ry="2.5" style="stroke:#000000;stroke-width:1.5;" width="1867" x="7" y="248.9483"/><text fill="#000000" font-family="sans-serif" font-size="14" font-weight="700" lengthAdjust="spacing" textLength="124.2432" x="878.3784" y="264.4834">TANG NGHIEP VU</text></g><!--cluster DAL_LAYER--><g class="cluster" data-qualified-name="DAL_LAYER" data-source-line="43" id="ent0007"><rect fill="#EDF6FC" height="180.95" rx="2.5" ry="2.5" style="stroke:#000000;stroke-width:1.5;" width="1152" x="871" y="675.3483"/><text fill="#000000" font-family="sans-serif" font-size="14" font-weight="700" lengthAdjust="spacing" textLength="180.6396" x="1356.6802" y="690.8834">TANG TRUY CAP DU LIEU</text></g><!--class MHHoanCoc--><g class="entity" data-qualified-name="GUI_LAYER.MHHoanCoc" data-source-line="15" id="ent0002"><rect fill="#BFE8BA" height="97.4648" rx="2.5" ry="2.5" style="stroke:#9B7B7B;stroke-width:0.5;" width="193.002" x="1400.5" y="87.4883"/><ellipse cx="1451.1953" cy="103.4883" fill="#ADD1B2" rx="11" ry="11" style="stroke:#181818;stroke-width:1;"/><path d="M1453.6685,109.6313 Q1453.0874,109.9302 1452.4482,110.0796 Q1451.8091,110.229 1451.1035,110.229 Q1448.5967,110.229 1447.2769,108.5771 Q1445.957,106.9253 1445.957,103.8042 Q1445.957,100.6748 1447.2769,99.0229 Q1448.5967,97.3711 1451.1035,97.3711 Q1451.8091,97.3711 1452.4565,97.5205 Q1453.104,97.6699 1453.6685,97.9688 L1453.6685,100.6914 Q1453.0376,100.1104 1452.4441,99.8406 Q1451.8506,99.5708 1451.2197,99.5708 Q1449.875,99.5708 1449.1902,100.6375 Q1448.5054,101.7041 1448.5054,103.8042 Q1448.5054,105.896 1449.1902,106.9626 Q1449.875,108.0293 1451.2197,108.0293 Q1451.8506,108.0293 1452.4441,107.7595 Q1453.0376,107.4897 1453.6685,106.9087 Z " fill="#000000"/><text fill="#000000" font-family="sans-serif" font-size="14" lengthAdjust="spacing" textLength="83.1113" x="1471.6953" y="108.7793">MHHoanCoc</text><line style="stroke:#9B7B7B;stroke-width:0.5;" x1="1401.5" x2="1592.502" y1="119.4883" y2="119.4883"/><line style="stroke:#9B7B7B;stroke-width:0.5;" x1="1401.5" x2="1592.502" y1="127.4883" y2="127.4883"/><text fill="#000000" font-family="sans-serif" font-size="14" lengthAdjust="spacing" textLength="166.2568" x="1406.5" y="145.0234">+taiDanhSachChoHoan()</text><text fill="#000000" font-family="sans-serif" font-size="14" lengthAdjust="spacing" textLength="181.002" x="1406.5" y="161.5117">+taiChiTiet(maPDS: String)</text><text fill="#000000" font-family="sans-serif" font-size="14" lengthAdjust="spacing" textLength="138.5508" x="1406.5" y="178">+lapPhieuHoanCoc()</text></g><!--class LapPhieuHoanCoc--><g class="entity" data-qualified-name="BUS_LAYER.LapPhieuHoanCoc" data-source-line="22" id="ent0004"><rect fill="#F4E3A2" height="97.4648" rx="2.5" ry="2.5" style="stroke:#9B7B7B;stroke-width:0.5;" width="1060.585" x="749.71" y="291.9483"/><ellipse cx="1214.8853" cy="307.9483" fill="#ADD1B2" rx="11" ry="11" style="stroke:#181818;stroke-width:1;"/><path d="M1217.3584,314.0913 Q1216.7774,314.3902 1216.1382,314.5396 Q1215.4991,314.689 1214.7935,314.689 Q1212.2867,314.689 1210.9668,313.0371 Q1209.647,311.3853 1209.647,308.2642 Q1209.647,305.1348 1210.9668,303.4829 Q1212.2867,301.8311 1214.7935,301.8311 Q1215.4991,301.8311 1216.1465,301.9805 Q1216.794,302.1299 1217.3584,302.4287 L1217.3584,305.1514 Q1216.7276,304.5704 1216.1341,304.3006 Q1215.5406,304.0308 1214.9097,304.0308 Q1213.565,304.0308 1212.8802,305.0975 Q1212.1954,306.1641 1212.1954,308.2642 Q1212.1954,310.356 1212.8802,311.4226 Q1213.565,312.4893 1214.9097,312.4893 Q1215.5406,312.4893 1216.1341,312.2195 Q1216.7276,311.9497 1217.3584,311.3687 Z " fill="#000000"/><text fill="#000000" font-family="sans-serif" font-size="14" lengthAdjust="spacing" textLength="121.7344" x="1235.3853" y="313.2393">LapPhieuHoanCoc</text><line style="stroke:#9B7B7B;stroke-width:0.5;" x1="750.71" x2="1809.295" y1="323.9483" y2="323.9483"/><line style="stroke:#9B7B7B;stroke-width:0.5;" x1="750.71" x2="1809.295" y1="331.9483" y2="331.9483"/><text fill="#000000" font-family="sans-serif" font-size="14" lengthAdjust="spacing" textLength="211.3877" x="755.71" y="349.4834">+LayDSPhieuDoiSoatCanHoan()</text><text fill="#000000" font-family="sans-serif" font-size="14" lengthAdjust="spacing" textLength="300.0225" x="755.71" y="365.9717">+LayChiTietPhieuDoiSoatDto(maPDS: String)</text><text fill="#000000" font-family="sans-serif" font-size="14" lengthAdjust="spacing" textLength="1048.585" x="755.71" y="382.46">+ThucHienHoanCoc(maPDS: String, phuongThuc: String, thongTinNhanTien: String, maGiaoDich: String, minhChung: String, maNV: String): PhieuHoanCoc</text></g><!--class PhieuDoiSoat--><g class="entity" data-qualified-name="BUS_LAYER.PhieuDoiSoat" data-source-line="27" id="ent0005"><rect fill="#F4E3A2" height="146.9297" rx="2.5" ry="2.5" style="stroke:#9B7B7B;stroke-width:0.5;" width="435.7461" x="1406.13" y="464.4183"/><ellipse cx="1575.152" cy="480.4183" fill="#ADD1B2" rx="11" ry="11" style="stroke:#181818;stroke-width:1;"/><path d="M1577.6251,486.5613 Q1577.0441,486.8602 1576.4049,487.0096 Q1575.7657,487.159 1575.0602,487.159 Q1572.5533,487.159 1571.2335,485.5071 Q1569.9137,483.8553 1569.9137,480.7342 Q1569.9137,477.6048 1571.2335,475.9529 Q1572.5533,474.3011 1575.0602,474.3011 Q1575.7657,474.3011 1576.4132,474.4505 Q1577.0607,474.5999 1577.6251,474.8987 L1577.6251,477.6214 Q1576.9943,477.0404 1576.4008,476.7706 Q1575.8072,476.5008 1575.1764,476.5008 Q1573.8317,476.5008 1573.1468,477.5675 Q1572.462,478.6341 1572.462,480.7342 Q1572.462,482.826 1573.1468,483.8926 Q1573.8317,484.9593 1575.1764,484.9593 Q1575.8072,484.9593 1576.4008,484.6895 Q1576.9943,484.4197 1577.6251,483.8387 Z " fill="#000000"/><text fill="#000000" font-family="sans-serif" font-size="14" lengthAdjust="spacing" textLength="89.2021" x="1595.652" y="485.7093">PhieuDoiSoat</text><line style="stroke:#9B7B7B;stroke-width:0.5;" x1="1407.13" x2="1840.8761" y1="496.4183" y2="496.4183"/><text fill="#000000" font-family="sans-serif" font-size="14" lengthAdjust="spacing" textLength="136.0078" x="1412.13" y="513.9534">-TienHoan: Decimal</text><text fill="#000000" font-family="sans-serif" font-size="14" lengthAdjust="spacing" textLength="125.9795" x="1412.13" y="530.4417">-TrangThai: String</text><line style="stroke:#9B7B7B;stroke-width:0.5;" x1="1407.13" x2="1840.8761" y1="537.3948" y2="537.3948"/><text fill="#000000" font-family="sans-serif" font-size="14" lengthAdjust="spacing" textLength="423.7461" x="1412.13" y="554.93">+LayDSPhieuDoiSoatCanHoan(): IReadOnlyList&lt;PhieuDoiSoat&gt;</text><text fill="#000000" font-family="sans-serif" font-size="14" lengthAdjust="spacing" textLength="373.7617" x="1412.13" y="571.4183">+LayChiTietPhieuDoiSoat(maPDS: String): PhieuDoiSoat</text><text fill="#000000" font-family="sans-serif" font-size="14" lengthAdjust="spacing" textLength="369.7627" x="1412.13" y="587.9066">+LayChiTietChoCapNhat(maPDS: String): PhieuDoiSoat</text><text fill="#000000" font-family="sans-serif" font-size="14" lengthAdjust="spacing" textLength="273.0957" x="1412.13" y="604.3948">+ChuyenSangDaTatToan(maPDS: String)</text></g><!--class PhieuHoanCoc--><g class="entity" data-qualified-name="BUS_LAYER.PhieuHoanCoc" data-source-line="35" id="ent0006"><rect fill="#F4E3A2" height="130.4414" rx="2.5" ry="2.5" style="stroke:#9B7B7B;stroke-width:0.5;" width="1320.4189" x="30.79" y="472.6583"/><ellipse cx="637.8862" cy="488.6583" fill="#ADD1B2" rx="11" ry="11" style="stroke:#181818;stroke-width:1;"/><path d="M640.3593,494.8013 Q639.7783,495.1002 639.1391,495.2496 Q638.5,495.399 637.7944,495.399 Q635.2876,495.399 633.9677,493.7471 Q632.6479,492.0953 632.6479,488.9742 Q632.6479,485.8448 633.9677,484.1929 Q635.2876,482.5411 637.7944,482.5411 Q638.5,482.5411 639.1474,482.6905 Q639.7949,482.8399 640.3593,483.1387 L640.3593,485.8614 Q639.7285,485.2804 639.135,485.0106 Q638.5415,484.7408 637.9106,484.7408 Q636.5659,484.7408 635.8811,485.8075 Q635.1963,486.8741 635.1963,488.9742 Q635.1963,491.066 635.8811,492.1326 Q636.5659,493.1993 637.9106,493.1993 Q638.5415,493.1993 639.135,492.9295 Q639.7285,492.6597 640.3593,492.0787 Z " fill="#000000"/><text fill="#000000" font-family="sans-serif" font-size="14" lengthAdjust="spacing" textLength="97.7266" x="658.3862" y="493.9493">PhieuHoanCoc</text><line style="stroke:#9B7B7B;stroke-width:0.5;" x1="31.79" x2="1350.2089" y1="504.6583" y2="504.6583"/><text fill="#000000" font-family="sans-serif" font-size="14" lengthAdjust="spacing" textLength="137.6074" x="36.79" y="522.1934">-MaGiaoDich: String</text><text fill="#000000" font-family="sans-serif" font-size="14" lengthAdjust="spacing" textLength="134.8936" x="36.79" y="538.6817">-MinhChung: String</text><line style="stroke:#9B7B7B;stroke-width:0.5;" x1="31.79" x2="1350.2089" y1="545.6348" y2="545.6348"/><text fill="#000000" font-family="sans-serif" font-size="14" lengthAdjust="spacing" textLength="1308.4189" x="36.79" y="563.17">+TaoPhieuHoanCoc(maPDS: String, soTien: Decimal, phuongThuc: String, thongTinNhanTien: String, maGiaoDich: String, minhChung: String, maNV: String, thoiDiem: DateTime): PhieuHoanCoc</text><text fill="#000000" font-family="sans-serif" font-size="14" lengthAdjust="spacing" textLength="359.1738" x="36.79" y="579.6583">+DaTonTaiChoPhieuDoiSoat(maPDS: String): Boolean</text><text fill="#000000" font-family="sans-serif" font-size="14" lengthAdjust="spacing" textLength="82.0381" x="36.79" y="596.1466">+LuuPhieu()</text></g><!--class PhieuDoiSoatDB--><g class="entity" data-qualified-name="DAL_LAYER.PhieuDoiSoatDB" data-source-line="44" id="ent0008"><rect fill="#BFDCF0" height="113.9531" rx="2.5" ry="2.5" style="stroke:#9B7B7B;stroke-width:0.5;" width="629.5518" x="1330.22" y="718.3483"/><ellipse cx="1586.8753" cy="734.3483" fill="#ADD1B2" rx="11" ry="11" style="stroke:#181818;stroke-width:1;"/><path d="M1589.3484,740.4913 Q1588.7674,740.7902 1588.1282,740.9396 Q1587.489,741.089 1586.7835,741.089 Q1584.2766,741.089 1582.9568,739.4371 Q1581.637,737.7853 1581.637,734.6642 Q1581.637,731.5348 1582.9568,729.8829 Q1584.2766,728.2311 1586.7835,728.2311 Q1587.489,728.2311 1588.1365,728.3805 Q1588.784,728.5299 1589.3484,728.8287 L1589.3484,731.5514 Q1588.7176,730.9704 1588.1241,730.7006 Q1587.5305,730.4308 1586.8997,730.4308 Q1585.555,730.4308 1584.8701,731.4975 Q1584.1853,732.5641 1584.1853,734.6642 Q1584.1853,736.756 1584.8701,737.8226 Q1585.555,738.8893 1586.8997,738.8893 Q1587.5305,738.8893 1588.1241,738.6195 Q1588.7176,738.3497 1589.3484,737.7687 Z " fill="#000000"/><text fill="#000000" font-family="sans-serif" font-size="14" lengthAdjust="spacing" textLength="107.7412" x="1607.3753" y="739.6393">PhieuDoiSoatDB</text><line style="stroke:#9B7B7B;stroke-width:0.5;" x1="1331.22" x2="1958.7718" y1="750.3483" y2="750.3483"/><line style="stroke:#9B7B7B;stroke-width:0.5;" x1="1331.22" x2="1958.7718" y1="758.3483" y2="758.3483"/><text fill="#000000" font-family="sans-serif" font-size="14" lengthAdjust="spacing" textLength="424.3887" x="1336.22" y="775.8834">+GetDSPhieuDoiSoatCanHoan(): IReadOnlyList&lt;PhieuDoiSoat&gt;</text><text fill="#000000" font-family="sans-serif" font-size="14" lengthAdjust="spacing" textLength="405.542" x="1336.22" y="792.3717">+GetPhieuDoiSoatTheoMaPDS(maPDS: String): PhieuDoiSoat</text><text fill="#000000" font-family="sans-serif" font-size="14" lengthAdjust="spacing" textLength="411.25" x="1336.22" y="808.86">+GetPhieuDoiSoatChoCapNhat(maPDS: String): PhieuDoiSoat</text><text fill="#000000" font-family="sans-serif" font-size="14" lengthAdjust="spacing" textLength="617.5518" x="1336.22" y="825.3483">+UpdateTrangThai(maPDS: String, trangThaiHienTai: String, trangThaiMoi: String): Boolean</text></g><!--class PhieuHoanCocDB--><g class="entity" data-qualified-name="DAL_LAYER.PhieuHoanCocDB" data-source-line="50" id="ent0009"><rect fill="#BFDCF0" height="80.9766" rx="2.5" ry="2.5" style="stroke:#9B7B7B;stroke-width:0.5;" width="379.7119" x="895.14" y="734.8383"/><ellipse cx="1022.6131" cy="750.8383" fill="#ADD1B2" rx="11" ry="11" style="stroke:#181818;stroke-width:1;"/><path d="M1025.0863,756.9813 Q1024.5052,757.2802 1023.8661,757.4296 Q1023.2269,757.579 1022.5213,757.579 Q1020.0145,757.579 1018.6947,755.9271 Q1017.3749,754.2753 1017.3749,751.1542 Q1017.3749,748.0248 1018.6947,746.3729 Q1020.0145,744.7211 1022.5213,744.7211 Q1023.2269,744.7211 1023.8744,744.8705 Q1024.5218,745.0199 1025.0863,745.3187 L1025.0863,748.0414 Q1024.4554,747.4604 1023.8619,747.1906 Q1023.2684,746.9208 1022.6376,746.9208 Q1021.2928,746.9208 1020.608,747.9875 Q1019.9232,749.0541 1019.9232,751.1542 Q1019.9232,753.246 1020.608,754.3126 Q1021.2928,755.3793 1022.6376,755.3793 Q1023.2684,755.3793 1023.8619,755.1095 Q1024.4554,754.8397 1025.0863,754.2587 Z " fill="#000000"/><text fill="#000000" font-family="sans-serif" font-size="14" lengthAdjust="spacing" textLength="116.2656" x="1043.1131" y="756.1293">PhieuHoanCocDB</text><line style="stroke:#9B7B7B;stroke-width:0.5;" x1="896.14" x2="1273.8519" y1="766.8383" y2="766.8383"/><line style="stroke:#9B7B7B;stroke-width:0.5;" x1="896.14" x2="1273.8519" y1="774.8383" y2="774.8383"/><text fill="#000000" font-family="sans-serif" font-size="14" lengthAdjust="spacing" textLength="367.7119" x="901.14" y="792.3734">+TonTaiTheoMaPhieuDoiSoat(maPDS: String): Boolean</text><text fill="#000000" font-family="sans-serif" font-size="14" lengthAdjust="spacing" textLength="301.2051" x="901.14" y="808.8617">+InsertPhieuHoanCoc(phieu: PhieuHoanCoc)</text></g><!--reverse link MHHoanCoc to LapPhieuHoanCoc--><g class="link" data-entity-1="ent0002" data-entity-2="ent0004" data-link-type="aggregation" data-source-line="55" id="lnk10"><path codeLine="55" d="M1497,197.1883 C1497,229.4483 1497,259.5083 1497,291.7583" fill="none" id="MHHoanCoc-backto-LapPhieuHoanCoc" style="stroke:#181818;stroke-width:1;"/><polygon fill="none" points="1497,185.1883,1493,191.1883,1497,197.1883,1501,191.1883,1497,185.1883" style="stroke:#181818;stroke-width:1;stroke-linejoin:miter;stroke-miterlimit:10;"/></g><!--reverse link LapPhieuHoanCoc to PhieuDoiSoat--><g class="link" data-entity-1="ent0004" data-entity-2="ent0005" data-link-type="aggregation" data-source-line="56" id="lnk11"><path codeLine="56" d="M1608.21,401.6783 C1608.21,424.1483 1608.21,439.2683 1608.21,464.1383" fill="none" id="LapPhieuHoanCoc-backto-PhieuDoiSoat" style="stroke:#181818;stroke-width:1;"/><polygon fill="none" points="1608.21,389.6783,1604.21,395.6783,1608.21,401.6783,1612.21,395.6783,1608.21,389.6783" style="stroke:#181818;stroke-width:1;stroke-linejoin:miter;stroke-miterlimit:10;"/></g><!--reverse link LapPhieuHoanCoc to PhieuHoanCoc--><g class="link" data-entity-1="ent0004" data-entity-2="ent0006" data-link-type="aggregation" data-source-line="57" id="lnk12"><path codeLine="57" d="M1050.46,401.6783 C1050.46,426.6583 1050.46,445.3883 1050.46,472.3683" fill="none" id="LapPhieuHoanCoc-backto-PhieuHoanCoc" style="stroke:#181818;stroke-width:1;"/><polygon fill="none" points="1050.46,389.6783,1046.46,395.6783,1050.46,401.6783,1054.46,395.6783,1050.46,389.6783" style="stroke:#181818;stroke-width:1;stroke-linejoin:miter;stroke-miterlimit:10;"/></g><!--reverse link PhieuDoiSoat to PhieuDoiSoatDB--><g class="link" data-entity-1="ent0005" data-entity-2="ent0008" data-link-type="aggregation" data-source-line="58" id="lnk13"><path codeLine="58" d="M1624,623.7083 C1624,658.0083 1624,686.1883 1624,718.1383" fill="none" id="PhieuDoiSoat-backto-PhieuDoiSoatDB" style="stroke:#181818;stroke-width:1;"/><polygon fill="none" points="1624,611.7083,1620,617.7083,1624,623.7083,1628,617.7083,1624,611.7083" style="stroke:#181818;stroke-width:1;stroke-linejoin:miter;stroke-miterlimit:10;"/></g><!--reverse link PhieuHoanCoc to PhieuHoanCocDB--><g class="link" data-entity-1="ent0006" data-entity-2="ent0009" data-link-type="aggregation" data-source-line="59" id="lnk14"><path codeLine="59" d="M1085,615.3883 C1085,657.3983 1085,698.6083 1085,734.6183" fill="none" id="PhieuHoanCoc-backto-PhieuHoanCocDB" style="stroke:#181818;stroke-width:1;"/><polygon fill="none" points="1085,603.3883,1081,609.3883,1085,615.3883,1089,609.3883,1085,603.3883" style="stroke:#181818;stroke-width:1;stroke-linejoin:miter;stroke-miterlimit:10;"/></g><!--link GUI_LAYER to BUS_LAYER--><!--link BUS_LAYER to DAL_LAYER--><!--link LapPhieuHoanCoc to PhieuDoiSoatDB--><?plantuml-src lLLjQvn04FxkhnYIBodjGMYQf3bAGLtl1RmNeXS8fPI9RiybtexeIhcM_FUkveohTqbJ2iLFpZoxy-mppyugeL8EmGBO0lp54iuWjETZ681lBs4vcNehc2piERWBrrAKWIAu8wLe0x78UQG4IQku5pB373TG91ZJ3o7Ny1tJWXkPL4YkjXa7obL2Ha9Ip0kUmVcv4SnHtbV1IpEOONIFQnwehMPSrKQvJiqQKOf5OIkLYxjIyMb4CX0_EPps8V3B0d3qRkkSIXcxb58EnwFHo7PPbQ4yvlakUkLSwizwiAnTUJYg1HfFRQtPr9iV0HOmNas_-VQjTmt77XjTUMvTuh7OR38Xb2v5SEoCl8-ENUS0te92mL0c0KQ9cr25EddJfjn4X8AhamqkMJ24G1zBhfjyYjao4RpSRLslUz0ikoJdOzt09ToiQfBEAcX8whDUUHS6IR-xdqPyyCxizqzKVTooe4Om4W6XSb5s26l0Zh29OeeEym-JCfe8BXl-7T0xo9AIvBe2jJ5j6nqISfwWr7LaczdWM20n4IL6J4WjQYdN9cn-yyHZ2EPvQ_KQBSm3z8GOGBWZFGJ68x71j8bhosh2A9eAVnHk2DDhZl52fbjV5EgJ2VhyegezIOSTndihjRLSpBHghrgdDTjo6UZ3C0nHXHNLlGxsj3ficW7CzlhI9FhDQLo1r75rpnK5FVPzf_n_i4czdM22RtHLL3mK6xvldOgwLejaMDrQUh5L3b7AKJPTAiiQ_Spz3QzNj-3gGSnMuEjHN5zZPll6hBaOcREcS_USQk0mTtJwT8l7NFs36STT5uO9frbrkjVOghVsxpovok9A--Q6zMsXcaGrKCBs1XgP6Oc3FJXiv0FAFJPtT-JNztSg2vwhZgUpwgTheQRvxKj1Wq5_95lz4LrXEc8z2sXsw0os_dBcM2-krdchVUO6Nn8Hnrn-rS-z7BHFYzK-CZt8asttUFQ0NLA_0G00?></g></svg>