<svg xmlns="http://www.w3.org/2000/svg" xmlns:xlink="http://www.w3.org/1999/xlink" contentStyleType="text/css" data-diagram-type="CLASS" height="1150px" preserveAspectRatio="none" style="width:602px;height:1150px;background:#FFFFFF;" version="1.1" viewBox="0 0 602 1150" width="602px" zoomAndPan="magnify"><?plantuml 1.2026.6?><defs/><g><g class="title" data-source-line="1"><text fill="#000000" font-family="sans-serif" font-size="14" font-weight="700" lengthAdjust="spacing" textLength="486.3291" x="54.3354" y="23.5352">SO DO LOP 3 TANG - QUAN LY CHINH SACH HOAN COC (UC 1.4.28)</text></g><!--cluster GUI_LAYER--><g class="cluster" data-qualified-name="GUI_LAYER" data-source-line="15" id="ent0001"><rect fill="#EDF9EC" height="329.34" rx="2.5" ry="2.5" style="stroke:#000000;stroke-width:1.5;" width="449" x="106" y="44.4883"/><text fill="#000000" font-family="sans-serif" font-size="14" font-weight="700" lengthAdjust="spacing" textLength="122.2197" x="269.3901" y="60.0234">TANG GIAO DIEN</text></g><!--cluster BUS_LAYER--><g class="cluster" data-qualified-name="BUS_LAYER" data-source-line="34" id="ent0003"><rect fill="#FFF9E6" height="501.82" rx="2.5" ry="2.5" style="stroke:#000000;stroke-width:1.5;" width="581" x="7" y="413.8283"/><text fill="#000000" font-family="sans-serif" font-size="14" font-weight="700" lengthAdjust="spacing" textLength="124.2432" x="235.3784" y="429.3634">TANG NGHIEP VU</text></g><!--cluster DAL_LAYER--><g class="cluster" data-qualified-name="DAL_LAYER" data-source-line="59" id="ent0006"><rect fill="#EDF6FC" height="180.95" rx="2.5" ry="2.5" style="stroke:#000000;stroke-width:1.5;" width="545" x="43" y="955.6483"/><text fill="#000000" font-family="sans-serif" font-size="14" font-weight="700" lengthAdjust="spacing" textLength="180.6396" x="225.1802" y="971.1834">TANG TRUY CAP DU LIEU</text></g><!--class MHQuanLyChinhSachHoanCoc--><g class="entity" data-qualified-name="GUI_LAYER.MHQuanLyChinhSachHoanCoc" data-source-line="16" id="ent0002"><rect fill="#BFE8BA" height="262.3477" rx="2.5" ry="2.5" style="stroke:#9B7B7B;stroke-width:0.5;" width="361.2617" x="130.37" y="87.4883"/><ellipse cx="204.3485" cy="103.4883" fill="#ADD1B2" rx="11" ry="11" style="stroke:#181818;stroke-width:1;"/><path d="M206.8217,109.6313 Q206.2406,109.9302 205.6014,110.0796 Q204.9623,110.229 204.2567,110.229 Q201.7499,110.229 200.4301,108.5771 Q199.1102,106.9253 199.1102,103.8042 Q199.1102,100.6748 200.4301,99.0229 Q201.7499,97.3711 204.2567,97.3711 Q204.9623,97.3711 205.6097,97.5205 Q206.2572,97.6699 206.8217,97.9688 L206.8217,100.6914 Q206.1908,100.1104 205.5973,99.8406 Q205.0038,99.5708 204.3729,99.5708 Q203.0282,99.5708 202.3434,100.6375 Q201.6586,101.7041 201.6586,103.8042 Q201.6586,105.896 202.3434,106.9626 Q203.0282,108.0293 204.3729,108.0293 Q205.0038,108.0293 205.5973,107.7595 Q206.1908,107.4897 206.8217,106.9087 Z " fill="#000000"/><text fill="#000000" font-family="sans-serif" font-size="14" lengthAdjust="spacing" textLength="204.8047" x="224.8485" y="108.7793">MHQuanLyChinhSachHoanCoc</text><line style="stroke:#9B7B7B;stroke-width:0.5;" x1="131.37" x2="490.6317" y1="119.4883" y2="119.4883"/><text fill="#000000" font-family="sans-serif" font-size="14" lengthAdjust="spacing" textLength="188.002" x="136.37" y="137.0234">-txtTenChinhSach: TextBox</text><text fill="#000000" font-family="sans-serif" font-size="14" lengthAdjust="spacing" textLength="186.9014" x="136.37" y="153.5117">-dtNgayApDung: DateInput</text><text fill="#000000" font-family="sans-serif" font-size="14" lengthAdjust="spacing" textLength="187.4141" x="136.37" y="170">-dtNgayKetThuc: DateInput</text><text fill="#000000" font-family="sans-serif" font-size="14" lengthAdjust="spacing" textLength="201.8584" x="136.37" y="186.4883">-txtMocLuuTru: NumberInput</text><text fill="#000000" font-family="sans-serif" font-size="14" lengthAdjust="spacing" textLength="212.3311" x="136.37" y="202.9766">-txtTiLe_ChuaKy: NumberInput</text><text fill="#000000" font-family="sans-serif" font-size="14" lengthAdjust="spacing" textLength="296.0303" x="136.37" y="219.4648">-txtTiLe_TruocHan_NganHan: NumberInput</text><text fill="#000000" font-family="sans-serif" font-size="14" lengthAdjust="spacing" textLength="282.8027" x="136.37" y="235.9531">-txtTiLe_TruocHan_DaiHan: NumberInput</text><text fill="#000000" font-family="sans-serif" font-size="14" lengthAdjust="spacing" textLength="224.3828" x="136.37" y="252.4414">-txtTiLe_DungHan: NumberInput</text><text fill="#000000" font-family="sans-serif" font-size="14" lengthAdjust="spacing" textLength="170.96" x="136.37" y="268.9297">-tblLichSuApDung: Table</text><text fill="#000000" font-family="sans-serif" font-size="14" lengthAdjust="spacing" textLength="170.8164" x="136.37" y="285.418">-btnTaoPhienBan: Button</text><line style="stroke:#9B7B7B;stroke-width:1;" x1="131.37" x2="490.6317" y1="292.3711" y2="292.3711"/><text fill="#000000" font-family="sans-serif" font-size="14" lengthAdjust="spacing" textLength="174.9043" x="136.37" y="309.9063">+taiDanhSachChinhSach()</text><text fill="#000000" font-family="sans-serif" font-size="14" lengthAdjust="spacing" textLength="349.2617" x="136.37" y="326.3945">+nhapPhienBanMoi(chinhSach: ChinhSachHoanCoc)</text><text fill="#000000" font-family="sans-serif" font-size="14" lengthAdjust="spacing" textLength="165.792" x="136.37" y="342.8828">+xacNhanTaoPhienBan()</text></g><!--class QuanLyChinhSachHoanCoc--><g class="entity" data-qualified-name="BUS_LAYER.QuanLyChinhSachHoanCoc" data-source-line="35" id="ent0004"><rect fill="#F4E3A2" height="80.9766" rx="2.5" ry="2.5" style="stroke:#9B7B7B;stroke-width:0.5;" width="493.0791" x="31.46" y="456.8283"/><ellipse cx="182.5205" cy="472.8283" fill="#ADD1B2" rx="11" ry="11" style="stroke:#181818;stroke-width:1;"/><path d="M184.9937,478.9713 Q184.4126,479.2702 183.7735,479.4196 Q183.1343,479.569 182.4288,479.569 Q179.9219,479.569 178.6021,477.9171 Q177.2823,476.2653 177.2823,473.1442 Q177.2823,470.0148 178.6021,468.3629 Q179.9219,466.7111 182.4288,466.7111 Q183.1343,466.7111 183.7818,466.8605 Q184.4292,467.0099 184.9937,467.3087 L184.9937,470.0314 Q184.3628,469.4504 183.7693,469.1806 Q183.1758,468.9108 182.545,468.9108 Q181.2002,468.9108 180.5154,469.9775 Q179.8306,471.0441 179.8306,473.1442 Q179.8306,475.236 180.5154,476.3026 Q181.2002,477.3693 182.545,477.3693 Q183.1758,477.3693 183.7693,477.0995 Q184.3628,476.8297 184.9937,476.2487 Z " fill="#000000"/><text fill="#000000" font-family="sans-serif" font-size="14" lengthAdjust="spacing" textLength="182.458" x="203.0205" y="478.1193">QuanLyChinhSachHoanCoc</text><line style="stroke:#9B7B7B;stroke-width:0.5;" x1="32.46" x2="523.5391" y1="488.8283" y2="488.8283"/><line style="stroke:#9B7B7B;stroke-width:0.5;" x1="32.46" x2="523.5391" y1="496.8283" y2="496.8283"/><text fill="#000000" font-family="sans-serif" font-size="14" lengthAdjust="spacing" textLength="296.167" x="37.46" y="514.3634">+LayDanhSach(): List&lt;ChinhSachHoanCoc&gt;</text><text fill="#000000" font-family="sans-serif" font-size="14" lengthAdjust="spacing" textLength="481.0791" x="37.46" y="530.8517">+TaoPhienBan(chinhSachMoi: ChinhSachHoanCoc): ChinhSachHoanCoc</text></g><!--class ChinhSachHoanCoc--><g class="entity" data-qualified-name="BUS_LAYER.ChinhSachHoanCoc" data-source-line="40" id="ent0005"><rect fill="#F4E3A2" height="278.8359" rx="2.5" ry="2.5" style="stroke:#9B7B7B;stroke-width:0.5;" width="313.4375" x="51.28" y="612.8083"/><ellipse cx="137.9016" cy="628.8083" fill="#ADD1B2" rx="11" ry="11" style="stroke:#181818;stroke-width:1;"/><path d="M140.3747,634.9513 Q139.7937,635.2502 139.1545,635.3996 Q138.5154,635.549 137.8098,635.549 Q135.3029,635.549 133.9831,633.8971 Q132.6633,632.2453 132.6633,629.1242 Q132.6633,625.9948 133.9831,624.3429 Q135.3029,622.6911 137.8098,622.6911 Q138.5154,622.6911 139.1628,622.8405 Q139.8103,622.9899 140.3747,623.2887 L140.3747,626.0114 Q139.7439,625.4304 139.1504,625.1606 Q138.5569,624.8908 137.926,624.8908 Q136.5813,624.8908 135.8965,625.9575 Q135.2116,627.0241 135.2116,629.1242 Q135.2116,631.216 135.8965,632.2826 Q136.5813,633.3493 137.926,633.3493 Q138.5569,633.3493 139.1504,633.0795 Q139.7439,632.8097 140.3747,632.2287 Z " fill="#000000"/><text fill="#000000" font-family="sans-serif" font-size="14" lengthAdjust="spacing" textLength="131.6943" x="158.4016" y="634.0993">ChinhSachHoanCoc</text><line style="stroke:#9B7B7B;stroke-width:0.5;" x1="52.28" x2="363.7175" y1="644.8083" y2="644.8083"/><text fill="#000000" font-family="sans-serif" font-size="14" lengthAdjust="spacing" textLength="147.6494" x="57.28" y="662.3434">-MaChinhSach: String</text><text fill="#000000" font-family="sans-serif" font-size="14" lengthAdjust="spacing" textLength="153.2002" x="57.28" y="678.8317">-TenChinhSach: String</text><text fill="#000000" font-family="sans-serif" font-size="14" lengthAdjust="spacing" textLength="157.7256" x="57.28" y="695.32">-TiLe_ChuaKy: Decimal</text><text fill="#000000" font-family="sans-serif" font-size="14" lengthAdjust="spacing" textLength="241.4248" x="57.28" y="711.8083">-TiLe_TruocHan_NganHan: Decimal</text><text fill="#000000" font-family="sans-serif" font-size="14" lengthAdjust="spacing" textLength="228.1973" x="57.28" y="728.2966">-TiLe_TruocHan_DaiHan: Decimal</text><text fill="#000000" font-family="sans-serif" font-size="14" lengthAdjust="spacing" textLength="169.7773" x="57.28" y="744.7848">-TiLe_DungHan: Decimal</text><text fill="#000000" font-family="sans-serif" font-size="14" lengthAdjust="spacing" textLength="140.916" x="57.28" y="761.2731">-MocLuuTru: Integer</text><text fill="#000000" font-family="sans-serif" font-size="14" lengthAdjust="spacing" textLength="137.3955" x="57.28" y="777.7614">-NgayApDung: Date</text><text fill="#000000" font-family="sans-serif" font-size="14" lengthAdjust="spacing" textLength="137.9082" x="57.28" y="794.2497">-NgayKetThuc: Date</text><line style="stroke:#9B7B7B;stroke-width:1;" x1="52.28" x2="363.7175" y1="801.2028" y2="801.2028"/><text fill="#000000" font-family="sans-serif" font-size="14" lengthAdjust="spacing" textLength="296.167" x="57.28" y="818.738">+LayDanhSach(): List&lt;ChinhSachHoanCoc&gt;</text><text fill="#000000" font-family="sans-serif" font-size="14" lengthAdjust="spacing" textLength="301.4375" x="57.28" y="835.2262">+LayPhienBanMoiNhat(): ChinhSachHoanCoc</text><text fill="#000000" font-family="sans-serif" font-size="14" lengthAdjust="spacing" textLength="166.7422" x="57.28" y="851.7145">+KiemTraDuLieuHopLe()</text><text fill="#000000" font-family="sans-serif" font-size="14" lengthAdjust="spacing" textLength="58.6455" x="57.28" y="868.2028">+Them()</text><text fill="#000000" font-family="sans-serif" font-size="14" lengthAdjust="spacing" textLength="296.3105" x="57.28" y="884.6911">+CapNhatNgayKetThuc(ngayKetThuc: Date)</text></g><!--class ChinhSachHoanCocDB--><g class="entity" data-qualified-name="DAL_LAYER.ChinhSachHoanCocDB" data-source-line="60" id="ent0007"><rect fill="#BFDCF0" height="113.9531" rx="2.5" ry="2.5" style="stroke:#9B7B7B;stroke-width:0.5;" width="457.7305" x="67.13" y="998.6483"/><ellipse cx="216.6285" cy="1014.6483" fill="#ADD1B2" rx="11" ry="11" style="stroke:#181818;stroke-width:1;"/><path d="M219.1017,1020.7913 Q218.5206,1021.0902 217.8815,1021.2396 Q217.2423,1021.389 216.5367,1021.389 Q214.0299,1021.389 212.7101,1019.7371 Q211.3903,1018.0853 211.3903,1014.9642 Q211.3903,1011.8348 212.7101,1010.1829 Q214.0299,1008.5311 216.5367,1008.5311 Q217.2423,1008.5311 217.8898,1008.6805 Q218.5372,1008.8299 219.1017,1009.1287 L219.1017,1011.8514 Q218.4708,1011.2704 217.8773,1011.0006 Q217.2838,1010.7308 216.6529,1010.7308 Q215.3082,1010.7308 214.6234,1011.7975 Q213.9386,1012.8641 213.9386,1014.9642 Q213.9386,1017.056 214.6234,1018.1226 Q215.3082,1019.1893 216.6529,1019.1893 Q217.2838,1019.1893 217.8773,1018.9195 Q218.4708,1018.6497 219.1017,1018.0687 Z " fill="#000000"/><text fill="#000000" font-family="sans-serif" font-size="14" lengthAdjust="spacing" textLength="150.2334" x="237.1285" y="1019.9393">ChinhSachHoanCocDB</text><line style="stroke:#9B7B7B;stroke-width:0.5;" x1="68.13" x2="523.8605" y1="1030.6483" y2="1030.6483"/><line style="stroke:#9B7B7B;stroke-width:0.5;" x1="68.13" x2="523.8605" y1="1038.6483" y2="1038.6483"/><text fill="#000000" font-family="sans-serif" font-size="14" lengthAdjust="spacing" textLength="296.167" x="73.13" y="1056.1834">+LayDanhSach(): List&lt;ChinhSachHoanCoc&gt;</text><text fill="#000000" font-family="sans-serif" font-size="14" lengthAdjust="spacing" textLength="301.4375" x="73.13" y="1072.6717">+LayPhienBanMoiNhat(): ChinhSachHoanCoc</text><text fill="#000000" font-family="sans-serif" font-size="14" lengthAdjust="spacing" textLength="267.6133" x="73.13" y="1089.16">+Them(chinhSach: ChinhSachHoanCoc)</text><text fill="#000000" font-family="sans-serif" font-size="14" lengthAdjust="spacing" textLength="445.7305" x="73.13" y="1105.6483">+CapNhatNgayKetThuc(maChinhSach: String, ngayKetThuc: Date)</text></g><!--reverse link MHQuanLyChinhSachHoanCoc to QuanLyChinhSachHoanCoc--><g class="link" data-entity-1="ent0002" data-entity-2="ent0004" data-link-type="aggregation" data-source-line="68" id="lnk8"><path codeLine="68" d="M311,362.2383 C311,400.8483 311,428.2583 311,456.5483" fill="none" id="MHQuanLyChinhSachHoanCoc-backto-QuanLyChinhSachHoanCoc" style="stroke:#181818;stroke-width:1;"/><polygon fill="none" points="311,350.2383,307,356.2383,311,362.2383,315,356.2383,311,350.2383" style="stroke:#181818;stroke-width:1;stroke-linejoin:miter;stroke-miterlimit:10;"/></g><!--reverse link QuanLyChinhSachHoanCoc to ChinhSachHoanCoc--><g class="link" data-entity-1="ent0004" data-entity-2="ent0005" data-link-type="aggregation" data-source-line="69" id="lnk9"><path codeLine="69" d="M208,550.2783 C208,570.8983 208,585.2283 208,612.3183" fill="none" id="QuanLyChinhSachHoanCoc-backto-ChinhSachHoanCoc" style="stroke:#181818;stroke-width:1;"/><polygon fill="none" points="208,538.2783,204,544.2783,208,550.2783,212,544.2783,208,538.2783" style="stroke:#181818;stroke-width:1;stroke-linejoin:miter;stroke-miterlimit:10;"/></g><!--reverse link ChinhSachHoanCoc to ChinhSachHoanCocDB--><g class="link" data-entity-1="ent0005" data-entity-2="ent0007" data-link-type="aggregation" data-source-line="70" id="lnk10"><path codeLine="70" d="M215.93,903.9383 C215.93,941.5683 215.93,968.1983 215.93,998.4683" fill="none" id="ChinhSachHoanCoc-backto-ChinhSachHoanCocDB" style="stroke:#181818;stroke-width:1;"/><polygon fill="none" points="215.93,891.9383,211.93,897.9383,215.93,903.9383,219.93,897.9383,215.93,891.9383" style="stroke:#181818;stroke-width:1;stroke-linejoin:miter;stroke-miterlimit:10;"/></g><!--link GUI_LAYER to BUS_LAYER--><!--link BUS_LAYER to DAL_LAYER--><!--link QuanLyChinhSachHoanCoc to ChinhSachHoanCocDB--><?plantuml-src dLLRRvim57xdLnorBwcsL5tlZQP9N0ig8MaXawffgXpmm2gn4HWjsTJ_FaC8SKZIovG7bFDzzhbzvvWJdcBmHs2Cm1sDuGm2rRk5FjnFL0_SHz1jnxF1LtKRx94mwICTUXCTlXoV7vzU7oaAPnbm1bF6EPj1H78SSiAeKZmJcg4SpQ18KCH-4nh3BvGMM49IGZ5VP1XOpXCc0PH5kC0PN5n8nXpHvyfu9Hip53wZ6Fjy8VAeV2CQfxAFC4L5eNAUasd9iHCowfC_64ww5FYh06ZYjZXd9Orqbh8S3YtBKdMZGbWUuRontcXNugUyA4hZ7WxgijqwggYaOte7W0gudJXFhlfeFi2XQLWtfbwxM3eRslSbekv2JmXDV1GcDaDKPo4SQfPvhQar5KGV-9m7cBQq0GHupZKsR-28Up5Qg9bHqdW01X8Pqgpa6-WTva5IXjkmk7l8GhSiWxmSW5VEfZZlu05nyPEUbEXkyHf3NC126z4duO-Axxku1Y9lKAkizb6cgKl2n2zNkGTeAlg-1AUS1eYD4uAfLXtNIY5EkWJxzUSJS4GCj2ngMztUKGFI16MhuqD6Uk6w_jsEhOxCKUWbIFPRt_QohHBlrdRCCNoVr2hH9lvA9K9iD-Qbf99z6h7EpJFrjD789t3HOfLAxsW0BYdur-wXRmrNZg_DIgIu8x5jKvrF6zqRSVLXY2JT-c82QTmWcvBUX6J56JWaCvJAqBRKNYEjDBQ3qufh4vCcmg4SnpXlWEwWIUQD2TkKsKTw8xYIw8IQU6zt4oho7S6p84T6wH9SsYnpSQlU8C6pze-EikecASmUxOQyHwZ1mqGy0EeOZ0cuZhdKgw6wqbQxjEIjrWtLqAfzPkZMoNzfzKFrg9D-nvpkgCTiMwUVON-Hzkvkrk_l6LdbbHDRt7Un34rHbFKBq_-Ha2Z2zATuQMb_lLIKzNhfKDe-xekjmzyEu1y0?></g></svg>