<svg xmlns="http://www.w3.org/2000/svg" xmlns:xlink="http://www.w3.org/1999/xlink" contentStyleType="text/css" data-diagram-type="CLASS" height="1035px" preserveAspectRatio="none" style="width:2839px;height:1035px;background:#FFFFFF;" version="1.1" viewBox="0 0 2839 1035" width="2839px" zoomAndPan="magnify"><?plantuml 1.2026.6?><defs/><g><g class="title" data-source-line="1"><text fill="#000000" font-family="sans-serif" font-size="14" font-weight="700" lengthAdjust="spacing" textLength="347.9629" x="1242.0186" y="23.5352">SO DO LOP 3 TANG - THANH TOAN TRA PHONG</text></g><!--cluster GUI_LAYER--><g class="cluster" data-qualified-name="GUI_LAYER" data-source-line="11" id="ent0001"><rect fill="#EDF9EC" height="395.31" rx="2.5" ry="2.5" style="stroke:#000000;stroke-width:1.5;" width="343" x="2083" y="44.4883"/><text fill="#000000" font-family="sans-serif" font-size="14" font-weight="700" lengthAdjust="spacing" textLength="122.2197" x="2193.3901" y="60.0234">TANG GIAO DIEN</text></g><!--cluster BUS_LAYER--><g class="cluster" data-qualified-name="BUS_LAYER" data-source-line="33" id="ent0003"><rect fill="#FFF9E6" height="336.93" rx="2.5" ry="2.5" style="stroke:#000000;stroke-width:1.5;" width="2818" x="7" y="479.7983"/><text fill="#000000" font-family="sans-serif" font-size="14" font-weight="700" lengthAdjust="spacing" textLength="124.2432" x="1353.8784" y="495.3334">TANG NGHIEP VU</text></g><!--cluster DAL_LAYER--><g class="cluster" data-qualified-name="DAL_LAYER" data-source-line="59" id="ent0010"><rect fill="#EDF6FC" height="164.46" rx="2.5" ry="2.5" style="stroke:#000000;stroke-width:1.5;" width="2501" x="7" y="856.7283"/><text fill="#000000" font-family="sans-serif" font-size="14" font-weight="700" lengthAdjust="spacing" textLength="180.6396" x="1167.1802" y="872.2634">TANG TRUY CAP DU LIEU</text></g><!--class MHThanhToanTraPhong--><g class="entity" data-qualified-name="GUI_LAYER.MHThanhToanTraPhong" data-source-line="12" id="ent0002"><rect fill="#BFE8BA" height="328.3008" rx="2.5" ry="2.5" style="stroke:#7F8C8D;stroke-width:0.5;" width="255.5576" x="2107.22" y="87.4883"/><ellipse cx="2149.1897" cy="103.4883" fill="#ADD1B2" rx="11" ry="11" style="stroke:#181818;stroke-width:1;"/><path d="M2151.6628,109.6313 Q2151.0818,109.9302 2150.4426,110.0796 Q2149.8034,110.229 2149.0979,110.229 Q2146.591,110.229 2145.2712,108.5771 Q2143.9514,106.9253 2143.9514,103.8042 Q2143.9514,100.6748 2145.2712,99.0229 Q2146.591,97.3711 2149.0979,97.3711 Q2149.8034,97.3711 2150.4509,97.5205 Q2151.0984,97.6699 2151.6628,97.9688 L2151.6628,100.6914 Q2151.032,100.1104 2150.4385,99.8406 Q2149.845,99.5708 2149.2141,99.5708 Q2147.8694,99.5708 2147.1846,100.6375 Q2146.4997,101.7041 2146.4997,103.8042 Q2146.4997,105.896 2147.1846,106.9626 Q2147.8694,108.0293 2149.2141,108.0293 Q2149.845,108.0293 2150.4385,107.7595 Q2151.032,107.4897 2151.6628,106.9087 Z " fill="#000000"/><text fill="#000000" font-family="sans-serif" font-size="14" lengthAdjust="spacing" textLength="163.625" x="2169.1829" y="108.7793">MHThanhToanTraPhong</text><line style="stroke:#7F8C8D;stroke-width:0.5;" x1="2108.22" x2="2361.7776" y1="119.4883" y2="119.4883"/><text fill="#000000" font-family="sans-serif" font-size="14" lengthAdjust="spacing" textLength="188.7197" x="2113.22" y="137.0234">-txtTimKiemPhieu: TextBox</text><text fill="#000000" font-family="sans-serif" font-size="14" lengthAdjust="spacing" textLength="238.7861" x="2113.22" y="153.5117">-grvPhieuDoiSoatDaChot: GridView</text><text fill="#000000" font-family="sans-serif" font-size="14" lengthAdjust="spacing" textLength="175.1094" x="2113.22" y="170">-pnlChiTietDoiSoat: Panel</text><text fill="#000000" font-family="sans-serif" font-size="14" lengthAdjust="spacing" textLength="115.2744" x="2113.22" y="186.4883">-lblMaPDS: Label</text><text fill="#000000" font-family="sans-serif" font-size="14" lengthAdjust="spacing" textLength="190.8047" x="2113.22" y="202.9766">-lblHoTenKhachHang: Label</text><text fill="#000000" font-family="sans-serif" font-size="14" lengthAdjust="spacing" textLength="112.1641" x="2113.22" y="219.4648">-lblPhong: Label</text><text fill="#000000" font-family="sans-serif" font-size="14" lengthAdjust="spacing" textLength="124.5645" x="2113.22" y="235.9531">-lblTienCoc: Label</text><text fill="#000000" font-family="sans-serif" font-size="14" lengthAdjust="spacing" textLength="162.1074" x="2113.22" y="252.4414">-lblTongKhauTru: Label</text><text fill="#000000" font-family="sans-serif" font-size="14" lengthAdjust="spacing" textLength="163.748" x="2113.22" y="268.9297">-lblTienThuThem: Label</text><text fill="#000000" font-family="sans-serif" font-size="14" lengthAdjust="spacing" textLength="134.415" x="2113.22" y="285.418">-lblTienHoan: Label</text><text fill="#000000" font-family="sans-serif" font-size="14" lengthAdjust="spacing" textLength="243.5576" x="2113.22" y="301.9063">-lstPhuongThucThanhToan: ListBox</text><text fill="#000000" font-family="sans-serif" font-size="14" lengthAdjust="spacing" textLength="187.5713" x="2113.22" y="318.3945">-uplMinhChung: FileUpload</text><text fill="#000000" font-family="sans-serif" font-size="14" lengthAdjust="spacing" textLength="139.8154" x="2113.22" y="334.8828">-btnThuTien: Button</text><text fill="#000000" font-family="sans-serif" font-size="14" lengthAdjust="spacing" textLength="170.2764" x="2113.22" y="351.3711">-dlgThuTien: AlertDialog</text><line style="stroke:#7F8C8D;stroke-width:1;" x1="2108.22" x2="2361.7776" y1="358.3242" y2="358.3242"/><text fill="#000000" font-family="sans-serif" font-size="14" lengthAdjust="spacing" textLength="103.9746" x="2113.22" y="375.8594">+taiDanhSach()</text><text fill="#000000" font-family="sans-serif" font-size="14" lengthAdjust="spacing" textLength="237.9795" x="2113.22" y="392.3477">+chonPhieuDoiSoat(maPDS: String)</text><text fill="#000000" font-family="sans-serif" font-size="14" lengthAdjust="spacing" textLength="134.791" x="2113.22" y="408.8359">+xacNhanThuTien()</text></g><!--class ThanhToanTraPhong--><g class="entity" data-qualified-name="BUS_LAYER.ThanhToanTraPhong" data-source-line="34" id="ent0004"><rect fill="#F4E3A2" height="97.4648" rx="2.5" ry="2.5" style="stroke:#7F8C8D;stroke-width:0.5;" width="722.124" x="1079.94" y="522.7983"/><ellipse cx="1366.1129" cy="538.7983" fill="#ADD1B2" rx="11" ry="11" style="stroke:#181818;stroke-width:1;"/><path d="M1368.586,544.9413 Q1368.0049,545.2402 1367.3658,545.3896 Q1366.7266,545.539 1366.0211,545.539 Q1363.5142,545.539 1362.1944,543.8871 Q1360.8746,542.2353 1360.8746,539.1142 Q1360.8746,535.9848 1362.1944,534.3329 Q1363.5142,532.6811 1366.0211,532.6811 Q1366.7266,532.6811 1367.3741,532.8305 Q1368.0215,532.9799 1368.586,533.2788 L1368.586,536.0014 Q1367.9551,535.4204 1367.3616,535.1506 Q1366.7681,534.8808 1366.1373,534.8808 Q1364.7925,534.8808 1364.1077,535.9475 Q1363.4229,537.0141 1363.4229,539.1142 Q1363.4229,541.206 1364.1077,542.2726 Q1364.7925,543.3393 1366.1373,543.3393 Q1366.7681,543.3393 1367.3616,543.0695 Q1367.9551,542.7997 1368.586,542.2187 Z " fill="#000000"/><text fill="#000000" font-family="sans-serif" font-size="14" lengthAdjust="spacing" textLength="141.2783" x="1386.6129" y="544.0893">ThanhToanTraPhong</text><line style="stroke:#7F8C8D;stroke-width:0.5;" x1="1080.94" x2="1801.064" y1="554.7983" y2="554.7983"/><line style="stroke:#7F8C8D;stroke-width:0.5;" x1="1080.94" x2="1801.064" y1="562.7983" y2="562.7983"/><text fill="#000000" font-family="sans-serif" font-size="14" lengthAdjust="spacing" textLength="412.7607" x="1085.94" y="580.3334">+LayDSPhieuDoiSoatDaChot(): IReadOnlyList&lt;PhieuDoiSoat&gt;</text><text fill="#000000" font-family="sans-serif" font-size="14" lengthAdjust="spacing" textLength="328.7129" x="1085.94" y="596.8217">+LayChiTietPhieuDoiSoat(maPDS: String): Object</text><text fill="#000000" font-family="sans-serif" font-size="14" lengthAdjust="spacing" textLength="710.124" x="1085.94" y="613.31">+TienHanhThuTien(maPDS: String, phuongThuc: String, anhMinhChung: String, maNV: String): PhieuThu</text></g><!--class PhieuDoiSoat--><g class="entity" data-qualified-name="BUS_LAYER.PhieuDoiSoat" data-source-line="39" id="ent0005"><rect fill="#F4E3A2" height="97.4648" rx="2.5" ry="2.5" style="stroke:#7F8C8D;stroke-width:0.5;" width="424.7607" x="2368.62" y="695.2583"/><ellipse cx="2532.1493" cy="711.2583" fill="#ADD1B2" rx="11" ry="11" style="stroke:#181818;stroke-width:1;"/><path d="M2534.6224,717.4013 Q2534.0414,717.7002 2533.4022,717.8496 Q2532.7631,717.999 2532.0575,717.999 Q2529.5507,717.999 2528.2308,716.3471 Q2526.911,714.6953 2526.911,711.5742 Q2526.911,708.4448 2528.2308,706.7929 Q2529.5507,705.1411 2532.0575,705.1411 Q2532.7631,705.1411 2533.4105,705.2905 Q2534.058,705.4399 2534.6224,705.7388 L2534.6224,708.4614 Q2533.9916,707.8804 2533.3981,707.6106 Q2532.8046,707.3408 2532.1737,707.3408 Q2530.829,707.3408 2530.1442,708.4075 Q2529.4594,709.4741 2529.4594,711.5742 Q2529.4594,713.666 2530.1442,714.7326 Q2530.829,715.7993 2532.1737,715.7993 Q2532.8046,715.7993 2533.3981,715.5295 Q2533.9916,715.2597 2534.6224,714.6787 Z " fill="#000000"/><text fill="#000000" font-family="sans-serif" font-size="14" lengthAdjust="spacing" textLength="89.2021" x="2552.6493" y="716.5493">PhieuDoiSoat</text><line style="stroke:#7F8C8D;stroke-width:0.5;" x1="2369.62" x2="2792.3807" y1="727.2583" y2="727.2583"/><line style="stroke:#7F8C8D;stroke-width:0.5;" x1="2369.62" x2="2792.3807" y1="735.2583" y2="735.2583"/><text fill="#000000" font-family="sans-serif" font-size="14" lengthAdjust="spacing" textLength="412.7607" x="2374.62" y="752.7934">+LayDSPhieuDoiSoatDaChot(): IReadOnlyList&lt;PhieuDoiSoat&gt;</text><text fill="#000000" font-family="sans-serif" font-size="14" lengthAdjust="spacing" textLength="373.7617" x="2374.62" y="769.2817">+LayChiTietPhieuDoiSoat(maPDS: String): PhieuDoiSoat</text><text fill="#000000" font-family="sans-serif" font-size="14" lengthAdjust="spacing" textLength="273.0957" x="2374.62" y="785.77">+ChuyenSangDaTatToan(maPDS: String)</text></g><!--class HopDong--><g class="entity" data-qualified-name="BUS_LAYER.HopDong" data-source-line="44" id="ent0006"><rect fill="#F4E3A2" height="64.4883" rx="2.5" ry="2.5" style="stroke:#7F8C8D;stroke-width:0.5;" width="331.4707" x="31.26" y="711.7483"/><ellipse cx="160.6438" cy="727.7483" fill="#ADD1B2" rx="11" ry="11" style="stroke:#181818;stroke-width:1;"/><path d="M163.1169,733.8913 Q162.5359,734.1902 161.8967,734.3396 Q161.2576,734.489 160.552,734.489 Q158.0452,734.489 156.7253,732.8371 Q155.4055,731.1853 155.4055,728.0642 Q155.4055,724.9348 156.7253,723.2829 Q158.0452,721.6311 160.552,721.6311 Q161.2576,721.6311 161.905,721.7805 Q162.5525,721.9299 163.1169,722.2288 L163.1169,724.9514 Q162.4861,724.3704 161.8926,724.1006 Q161.2991,723.8308 160.6682,723.8308 Q159.3235,723.8308 158.6387,724.8975 Q157.9538,725.9641 157.9538,728.0642 Q157.9538,730.156 158.6387,731.2226 Q159.3235,732.2893 160.6682,732.2893 Q161.2991,732.2893 161.8926,732.0195 Q162.4861,731.7497 163.1169,731.1687 Z " fill="#000000"/><text fill="#000000" font-family="sans-serif" font-size="14" lengthAdjust="spacing" textLength="64.2031" x="181.1438" y="733.0393">HopDong</text><line style="stroke:#7F8C8D;stroke-width:0.5;" x1="32.26" x2="361.7307" y1="743.7483" y2="743.7483"/><line style="stroke:#7F8C8D;stroke-width:0.5;" x1="32.26" x2="361.7307" y1="751.7483" y2="751.7483"/><text fill="#000000" font-family="sans-serif" font-size="14" lengthAdjust="spacing" textLength="319.4707" x="37.26" y="769.2834">+LayThongTinLuuTru(maHD: String): HopDong</text></g><!--class PhieuCoc--><g class="entity" data-qualified-name="BUS_LAYER.PhieuCoc" data-source-line="47" id="ent0007"><rect fill="#F4E3A2" height="64.4883" rx="2.5" ry="2.5" style="stroke:#7F8C8D;stroke-width:0.5;" width="310.1768" x="417.91" y="711.7483"/><ellipse cx="537.5389" cy="727.7483" fill="#ADD1B2" rx="11" ry="11" style="stroke:#181818;stroke-width:1;"/><path d="M540.0121,733.8913 Q539.431,734.1902 538.7918,734.3396 Q538.1527,734.489 537.4471,734.489 Q534.9403,734.489 533.6204,732.8371 Q532.3006,731.1853 532.3006,728.0642 Q532.3006,724.9348 533.6204,723.2829 Q534.9403,721.6311 537.4471,721.6311 Q538.1527,721.6311 538.8001,721.7805 Q539.4476,721.9299 540.0121,722.2288 L540.0121,724.9514 Q539.3812,724.3704 538.7877,724.1006 Q538.1942,723.8308 537.5633,723.8308 Q536.2186,723.8308 535.5338,724.8975 Q534.849,725.9641 534.849,728.0642 Q534.849,730.156 535.5338,731.2226 Q536.2186,732.2893 537.5633,732.2893 Q538.1942,732.2893 538.7877,732.0195 Q539.3812,731.7497 540.0121,731.1687 Z " fill="#000000"/><text fill="#000000" font-family="sans-serif" font-size="14" lengthAdjust="spacing" textLength="62.4189" x="558.0389" y="733.0393">PhieuCoc</text><line style="stroke:#7F8C8D;stroke-width:0.5;" x1="418.91" x2="727.0868" y1="743.7483" y2="743.7483"/><line style="stroke:#7F8C8D;stroke-width:0.5;" x1="418.91" x2="727.0868" y1="751.7483" y2="751.7483"/><text fill="#000000" font-family="sans-serif" font-size="14" lengthAdjust="spacing" textLength="298.1768" x="423.91" y="769.2834">+DocChiTiet(maPhieuCoc: String): PhieuCoc</text></g><!--class HoaDon--><g class="entity" data-qualified-name="BUS_LAYER.HoaDon" data-source-line="50" id="ent0008"><rect fill="#F4E3A2" height="64.4883" rx="2.5" ry="2.5" style="stroke:#7F8C8D;stroke-width:0.5;" width="523.2529" x="783.37" y="711.7483"/><ellipse cx="1013.5497" cy="727.7483" fill="#ADD1B2" rx="11" ry="11" style="stroke:#181818;stroke-width:1;"/><path d="M1016.0228,733.8913 Q1015.4418,734.1902 1014.8026,734.3396 Q1014.1635,734.489 1013.4579,734.489 Q1010.9511,734.489 1009.6312,732.8371 Q1008.3114,731.1853 1008.3114,728.0642 Q1008.3114,724.9348 1009.6312,723.2829 Q1010.9511,721.6311 1013.4579,721.6311 Q1014.1635,721.6311 1014.8109,721.7805 Q1015.4584,721.9299 1016.0228,722.2288 L1016.0228,724.9514 Q1015.392,724.3704 1014.7985,724.1006 Q1014.205,723.8308 1013.5741,723.8308 Q1012.2294,723.8308 1011.5446,724.8975 Q1010.8597,725.9641 1010.8597,728.0642 Q1010.8597,730.156 1011.5446,731.2226 Q1012.2294,732.2893 1013.5741,732.2893 Q1014.205,732.2893 1014.7985,732.0195 Q1015.392,731.7497 1016.0228,731.1687 Z " fill="#000000"/><text fill="#000000" font-family="sans-serif" font-size="14" lengthAdjust="spacing" textLength="54.3936" x="1034.0497" y="733.0393">HoaDon</text><line style="stroke:#7F8C8D;stroke-width:0.5;" x1="784.37" x2="1305.6229" y1="743.7483" y2="743.7483"/><line style="stroke:#7F8C8D;stroke-width:0.5;" x1="784.37" x2="1305.6229" y1="751.7483" y2="751.7483"/><text fill="#000000" font-family="sans-serif" font-size="14" lengthAdjust="spacing" textLength="511.2529" x="789.37" y="769.2834">+LayDSHoaDonTheoPhieuDoiSoat(maPDS: String): IReadOnlyList&lt;HoaDon&gt;</text></g><!--class PhieuThu--><g class="entity" data-qualified-name="BUS_LAYER.PhieuThu" data-source-line="53" id="ent0009"><rect fill="#F4E3A2" height="97.4648" rx="2.5" ry="2.5" style="stroke:#7F8C8D;stroke-width:0.5;" width="952.0098" x="1362" y="695.2583"/><ellipse cx="1802.1592" cy="711.2583" fill="#ADD1B2" rx="11" ry="11" style="stroke:#181818;stroke-width:1;"/><path d="M1804.6323,717.4013 Q1804.0513,717.7002 1803.4121,717.8496 Q1802.7729,717.999 1802.0674,717.999 Q1799.5605,717.999 1798.2407,716.3471 Q1796.9209,714.6953 1796.9209,711.5742 Q1796.9209,708.4448 1798.2407,706.7929 Q1799.5605,705.1411 1802.0674,705.1411 Q1802.7729,705.1411 1803.4204,705.2905 Q1804.0679,705.4399 1804.6323,705.7388 L1804.6323,708.4614 Q1804.0015,707.8804 1803.408,707.6106 Q1802.8145,707.3408 1802.1836,707.3408 Q1800.8389,707.3408 1800.1541,708.4075 Q1799.4692,709.4741 1799.4692,711.5742 Q1799.4692,713.666 1800.1541,714.7326 Q1800.8389,715.7993 1802.1836,715.7993 Q1802.8145,715.7993 1803.408,715.5295 Q1804.0015,715.2597 1804.6323,714.6787 Z " fill="#000000"/><text fill="#000000" font-family="sans-serif" font-size="14" lengthAdjust="spacing" textLength="63.1914" x="1822.6592" y="716.5493">PhieuThu</text><line style="stroke:#7F8C8D;stroke-width:0.5;" x1="1363" x2="2313.0098" y1="727.2583" y2="727.2583"/><line style="stroke:#7F8C8D;stroke-width:0.5;" x1="1363" x2="2313.0098" y1="735.2583" y2="735.2583"/><text fill="#000000" font-family="sans-serif" font-size="14" lengthAdjust="spacing" textLength="359.1738" x="1368" y="752.7934">+DaTonTaiChoPhieuDoiSoat(maPDS: String): Boolean</text><text fill="#000000" font-family="sans-serif" font-size="14" lengthAdjust="spacing" textLength="940.0098" x="1368" y="769.2817">+TaoPhieuThu(maPDS: String, soTien: Decimal, phuongThuc: String, anhMinhChung: String, maNV: String, thoiDiem: DateTime): PhieuThu</text><text fill="#000000" font-family="sans-serif" font-size="14" lengthAdjust="spacing" textLength="82.0381" x="1368" y="785.77">+LuuPhieu()</text></g><!--class PhieuDoiSoatDB--><g class="entity" data-qualified-name="DAL_LAYER.PhieuDoiSoatDB" data-source-line="60" id="ent0011"><rect fill="#BFDCF0" height="97.4648" rx="2.5" ry="2.5" style="stroke:#7F8C8D;stroke-width:0.5;" width="629.5518" x="1815.22" y="899.7283"/><ellipse cx="2071.8753" cy="915.7283" fill="#ADD1B2" rx="11" ry="11" style="stroke:#181818;stroke-width:1;"/><path d="M2074.3484,921.8713 Q2073.7674,922.1702 2073.1282,922.3196 Q2072.489,922.469 2071.7835,922.469 Q2069.2766,922.469 2067.9568,920.8171 Q2066.637,919.1653 2066.637,916.0442 Q2066.637,912.9148 2067.9568,911.2629 Q2069.2766,909.6111 2071.7835,909.6111 Q2072.489,909.6111 2073.1365,909.7605 Q2073.784,909.9099 2074.3484,910.2088 L2074.3484,912.9314 Q2073.7176,912.3504 2073.1241,912.0806 Q2072.5305,911.8108 2071.8997,911.8108 Q2070.555,911.8108 2069.8701,912.8775 Q2069.1853,913.9441 2069.1853,916.0442 Q2069.1853,918.136 2069.8701,919.2026 Q2070.555,920.2693 2071.8997,920.2693 Q2072.5305,920.2693 2073.1241,919.9995 Q2073.7176,919.7297 2074.3484,919.1487 Z " fill="#000000"/><text fill="#000000" font-family="sans-serif" font-size="14" lengthAdjust="spacing" textLength="107.7412" x="2092.3753" y="921.0193">PhieuDoiSoatDB</text><line style="stroke:#7F8C8D;stroke-width:0.5;" x1="1816.22" x2="2443.7718" y1="931.7283" y2="931.7283"/><line style="stroke:#7F8C8D;stroke-width:0.5;" x1="1816.22" x2="2443.7718" y1="939.7283" y2="939.7283"/><text fill="#000000" font-family="sans-serif" font-size="14" lengthAdjust="spacing" textLength="413.4033" x="1821.22" y="957.2634">+GetDSPhieuDoiSoatDaChot(): IReadOnlyList&lt;PhieuDoiSoat&gt;</text><text fill="#000000" font-family="sans-serif" font-size="14" lengthAdjust="spacing" textLength="405.542" x="1821.22" y="973.7517">+GetPhieuDoiSoatTheoMaPDS(maPDS: String): PhieuDoiSoat</text><text fill="#000000" font-family="sans-serif" font-size="14" lengthAdjust="spacing" textLength="617.5518" x="1821.22" y="990.24">+UpdateTrangThai(maPDS: String, trangThaiHienTai: String, trangThaiMoi: String): Boolean</text></g><!--class HopDongDB--><g class="entity" data-qualified-name="DAL_LAYER.HopDongDB" data-source-line="65" id="ent0012"><rect fill="#BFDCF0" height="64.4883" rx="2.5" ry="2.5" style="stroke:#7F8C8D;stroke-width:0.5;" width="331.4707" x="31.26" y="916.2083"/><ellipse cx="151.3743" cy="932.2083" fill="#ADD1B2" rx="11" ry="11" style="stroke:#181818;stroke-width:1;"/><path d="M153.8474,938.3513 Q153.2663,938.6502 152.6272,938.7996 Q151.988,938.949 151.2825,938.949 Q148.7756,938.949 147.4558,937.2971 Q146.136,935.6453 146.136,932.5242 Q146.136,929.3948 147.4558,927.7429 Q148.7756,926.0911 151.2825,926.0911 Q151.988,926.0911 152.6355,926.2405 Q153.2829,926.3899 153.8474,926.6888 L153.8474,929.4114 Q153.2165,928.8304 152.623,928.5606 Q152.0295,928.2908 151.3987,928.2908 Q150.0539,928.2908 149.3691,929.3575 Q148.6843,930.4241 148.6843,932.5242 Q148.6843,934.616 149.3691,935.6826 Q150.0539,936.7493 151.3987,936.7493 Q152.0295,936.7493 152.623,936.4795 Q153.2165,936.2097 153.8474,935.6287 Z " fill="#000000"/><text fill="#000000" font-family="sans-serif" font-size="14" lengthAdjust="spacing" textLength="82.7422" x="171.8743" y="937.4993">HopDongDB</text><line style="stroke:#7F8C8D;stroke-width:0.5;" x1="32.26" x2="361.7307" y1="948.2083" y2="948.2083"/><line style="stroke:#7F8C8D;stroke-width:0.5;" x1="32.26" x2="361.7307" y1="956.2083" y2="956.2083"/><text fill="#000000" font-family="sans-serif" font-size="14" lengthAdjust="spacing" textLength="319.4707" x="37.26" y="973.7434">+LayThongTinLuuTru(maHD: String): HopDong</text></g><!--class PhieuCocDB--><g class="entity" data-qualified-name="DAL_LAYER.PhieuCocDB" data-source-line="68" id="ent0013"><rect fill="#BFDCF0" height="64.4883" rx="2.5" ry="2.5" style="stroke:#7F8C8D;stroke-width:0.5;" width="371.8232" x="418.09" y="916.2083"/><ellipse cx="559.2726" cy="932.2083" fill="#ADD1B2" rx="11" ry="11" style="stroke:#181818;stroke-width:1;"/><path d="M561.7458,938.3513 Q561.1647,938.6502 560.5255,938.7996 Q559.8864,938.949 559.1808,938.949 Q556.674,938.949 555.3542,937.2971 Q554.0343,935.6453 554.0343,932.5242 Q554.0343,929.3948 555.3542,927.7429 Q556.674,926.0911 559.1808,926.0911 Q559.8864,926.0911 560.5338,926.2405 Q561.1813,926.3899 561.7458,926.6888 L561.7458,929.4114 Q561.1149,928.8304 560.5214,928.5606 Q559.9279,928.2908 559.297,928.2908 Q557.9523,928.2908 557.2675,929.3575 Q556.5827,930.4241 556.5827,932.5242 Q556.5827,934.616 557.2675,935.6826 Q557.9523,936.7493 559.297,936.7493 Q559.9279,936.7493 560.5214,936.4795 Q561.1149,936.2097 561.7458,935.6287 Z " fill="#000000"/><text fill="#000000" font-family="sans-serif" font-size="14" lengthAdjust="spacing" textLength="80.958" x="579.7726" y="937.4993">PhieuCocDB</text><line style="stroke:#7F8C8D;stroke-width:0.5;" x1="419.09" x2="788.9132" y1="948.2083" y2="948.2083"/><line style="stroke:#7F8C8D;stroke-width:0.5;" x1="419.09" x2="788.9132" y1="956.2083" y2="956.2083"/><text fill="#000000" font-family="sans-serif" font-size="14" lengthAdjust="spacing" textLength="359.8232" x="424.09" y="973.7434">+DocChiTietHeThong(maPhieuCoc: String): PhieuCoc</text></g><!--class HoaDonDB--><g class="entity" data-qualified-name="DAL_LAYER.HoaDonDB" data-source-line="71" id="ent0014"><rect fill="#BFDCF0" height="64.4883" rx="2.5" ry="2.5" style="stroke:#7F8C8D;stroke-width:0.5;" width="480.248" x="844.88" y="916.2083"/><ellipse cx="1044.2877" cy="932.2083" fill="#ADD1B2" rx="11" ry="11" style="stroke:#181818;stroke-width:1;"/><path d="M1046.7609,938.3513 Q1046.1798,938.6502 1045.5406,938.7996 Q1044.9015,938.949 1044.1959,938.949 Q1041.6891,938.949 1040.3693,937.2971 Q1039.0494,935.6453 1039.0494,932.5242 Q1039.0494,929.3948 1040.3693,927.7429 Q1041.6891,926.0911 1044.1959,926.0911 Q1044.9015,926.0911 1045.5489,926.2405 Q1046.1964,926.3899 1046.7609,926.6888 L1046.7609,929.4114 Q1046.13,928.8304 1045.5365,928.5606 Q1044.943,928.2908 1044.3121,928.2908 Q1042.9674,928.2908 1042.2826,929.3575 Q1041.5978,930.4241 1041.5978,932.5242 Q1041.5978,934.616 1042.2826,935.6826 Q1042.9674,936.7493 1044.3121,936.7493 Q1044.943,936.7493 1045.5365,936.4795 Q1046.13,936.2097 1046.7609,935.6287 Z " fill="#000000"/><text fill="#000000" font-family="sans-serif" font-size="14" lengthAdjust="spacing" textLength="72.9326" x="1064.7877" y="937.4993">HoaDonDB</text><line style="stroke:#7F8C8D;stroke-width:0.5;" x1="845.88" x2="1324.128" y1="948.2083" y2="948.2083"/><line style="stroke:#7F8C8D;stroke-width:0.5;" x1="845.88" x2="1324.128" y1="956.2083" y2="956.2083"/><text fill="#000000" font-family="sans-serif" font-size="14" lengthAdjust="spacing" textLength="468.248" x="850.88" y="973.7434">+GetDSHoaDonTheoMaPDS(maPDS: String): IReadOnlyList&lt;HoaDon&gt;</text></g><!--class PhieuThuDB--><g class="entity" data-qualified-name="DAL_LAYER.PhieuThuDB" data-source-line="74" id="ent0015"><rect fill="#BFDCF0" height="80.9766" rx="2.5" ry="2.5" style="stroke:#7F8C8D;stroke-width:0.5;" width="379.7119" x="1380.14" y="907.9683"/><ellipse cx="1524.8807" cy="923.9683" fill="#ADD1B2" rx="11" ry="11" style="stroke:#181818;stroke-width:1;"/><path d="M1527.3539,930.1113 Q1526.7728,930.4102 1526.1337,930.5596 Q1525.4945,930.709 1524.7889,930.709 Q1522.2821,930.709 1520.9623,929.0571 Q1519.6424,927.4053 1519.6424,924.2842 Q1519.6424,921.1548 1520.9623,919.5029 Q1522.2821,917.8511 1524.7889,917.8511 Q1525.4945,917.8511 1526.142,918.0005 Q1526.7894,918.1499 1527.3539,918.4488 L1527.3539,921.1714 Q1526.723,920.5904 1526.1295,920.3206 Q1525.536,920.0508 1524.9051,920.0508 Q1523.5604,920.0508 1522.8756,921.1175 Q1522.1908,922.1841 1522.1908,924.2842 Q1522.1908,926.376 1522.8756,927.4426 Q1523.5604,928.5093 1524.9051,928.5093 Q1525.536,928.5093 1526.1295,928.2395 Q1526.723,927.9697 1527.3539,927.3887 Z " fill="#000000"/><text fill="#000000" font-family="sans-serif" font-size="14" lengthAdjust="spacing" textLength="81.7305" x="1545.3807" y="929.2593">PhieuThuDB</text><line style="stroke:#7F8C8D;stroke-width:0.5;" x1="1381.14" x2="1758.8519" y1="939.9683" y2="939.9683"/><line style="stroke:#7F8C8D;stroke-width:0.5;" x1="1381.14" x2="1758.8519" y1="947.9683" y2="947.9683"/><text fill="#000000" font-family="sans-serif" font-size="14" lengthAdjust="spacing" textLength="367.7119" x="1386.14" y="965.5034">+TonTaiTheoMaPhieuDoiSoat(maPDS: String): Boolean</text><text fill="#000000" font-family="sans-serif" font-size="14" lengthAdjust="spacing" textLength="258.3643" x="1386.14" y="981.9917">+InsertPhieuThu(phieuThu: PhieuThu)</text></g><!--link GUI_LAYER to BUS_LAYER--><!--link BUS_LAYER to DAL_LAYER--><!--link PhieuThu to PhieuDoiSoatDB--><!--reverse link MHThanhToanTraPhong to ThanhToanTraPhong--><g class="link" data-entity-1="ent0002" data-entity-2="ent0004" data-link-type="aggregation" data-source-line="83" id="lnk19"><path codeLine="83" d="M2210.61,428.1383 C2210.61,495.6083 2210.61,546.1883 2210.61,546.1883 C2210.61,546.1883 2002.3,546.1883 1802.43,546.1883" fill="none" id="MHThanhToanTraPhong-backto-ThanhToanTraPhong" style="stroke:#181818;stroke-width:1;"/><polygon fill="none" points="2210.61,416.1383,2206.61,422.1383,2210.61,428.1383,2214.61,422.1383,2210.61,416.1383" style="stroke:#181818;stroke-width:1;stroke-linejoin:miter;stroke-miterlimit:10;"/></g><!--reverse link ThanhToanTraPhong to PhieuDoiSoat--><g class="link" data-entity-1="ent0004" data-entity-2="ent0005" data-link-type="aggregation" data-source-line="84" id="lnk20"><path codeLine="84" d="M1814.54,596.1883 C2083.73,596.1883 2392.81,596.1883 2392.81,596.1883 C2392.81,596.1883 2392.81,651.7783 2392.81,694.7783" fill="none" id="ThanhToanTraPhong-backto-PhieuDoiSoat" style="stroke:#181818;stroke-width:1;"/><polygon fill="none" points="1802.54,596.1883,1808.54,600.1883,1814.54,596.1883,1808.54,592.1883,1802.54,596.1883" style="stroke:#181818;stroke-width:1;stroke-linejoin:miter;stroke-miterlimit:10;"/></g><!--reverse link ThanhToanTraPhong to HopDong--><g class="link" data-entity-1="ent0004" data-entity-2="ent0006" data-link-type="aggregation" data-source-line="85" id="lnk21"><path codeLine="85" d="M1067.51,555.1883 C700.22,555.1883 197,555.1883 197,555.1883 C197,555.1883 197,657.5483 197,711.5383" fill="none" id="ThanhToanTraPhong-backto-HopDong" style="stroke:#181818;stroke-width:1;"/><polygon fill="none" points="1079.51,555.1883,1073.51,551.1883,1067.51,555.1883,1073.51,559.1883,1079.51,555.1883" style="stroke:#181818;stroke-width:1;stroke-linejoin:miter;stroke-miterlimit:10;"/></g><!--reverse link ThanhToanTraPhong to PhieuCoc--><g class="link" data-entity-1="ent0004" data-entity-2="ent0007" data-link-type="aggregation" data-source-line="86" id="lnk22"><path codeLine="86" d="M1067.49,588.1883 C829.24,588.1883 573,588.1883 573,588.1883 C573,588.1883 573,665.6483 573,711.3283" fill="none" id="ThanhToanTraPhong-backto-PhieuCoc" style="stroke:#181818;stroke-width:1;"/><polygon fill="none" points="1079.49,588.1883,1073.49,584.1883,1067.49,588.1883,1073.49,592.1883,1079.49,588.1883" style="stroke:#181818;stroke-width:1;stroke-linejoin:miter;stroke-miterlimit:10;"/></g><!--reverse link ThanhToanTraPhong to HoaDon--><g class="link" data-entity-1="ent0004" data-entity-2="ent0008" data-link-type="aggregation" data-source-line="87" id="lnk23"><path codeLine="87" d="M1193.28,632.4883 C1193.28,661.5683 1193.28,685.6483 1193.28,711.2883" fill="none" id="ThanhToanTraPhong-backto-HoaDon" style="stroke:#181818;stroke-width:1;"/><polygon fill="none" points="1193.28,620.4883,1189.28,626.4883,1193.28,632.4883,1197.28,626.4883,1193.28,620.4883" style="stroke:#181818;stroke-width:1;stroke-linejoin:miter;stroke-miterlimit:10;"/></g><!--reverse link ThanhToanTraPhong to PhieuThu--><g class="link" data-entity-1="ent0004" data-entity-2="ent0009" data-link-type="aggregation" data-source-line="88" id="lnk24"><path codeLine="88" d="M1582.03,632.4883 C1582.03,655.7883 1582.03,671.5883 1582.03,694.9083" fill="none" id="ThanhToanTraPhong-backto-PhieuThu" style="stroke:#181818;stroke-width:1;"/><polygon fill="none" points="1582.03,620.4883,1578.03,626.4883,1582.03,632.4883,1586.03,626.4883,1582.03,620.4883" style="stroke:#181818;stroke-width:1;stroke-linejoin:miter;stroke-miterlimit:10;"/></g><!--reverse link PhieuDoiSoat to PhieuDoiSoatDB--><g class="link" data-entity-1="ent0005" data-entity-2="ent0011" data-link-type="aggregation" data-source-line="89" id="lnk25"><path codeLine="89" d="M2406.7,804.9683 C2406.7,837.2183 2406.7,867.2883 2406.7,899.5283" fill="none" id="PhieuDoiSoat-backto-PhieuDoiSoatDB" style="stroke:#181818;stroke-width:1;"/><polygon fill="none" points="2406.7,792.9683,2402.7,798.9683,2406.7,804.9683,2410.7,798.9683,2406.7,792.9683" style="stroke:#181818;stroke-width:1;stroke-linejoin:miter;stroke-miterlimit:10;"/></g><!--reverse link HopDong to HopDongDB--><g class="link" data-entity-1="ent0006" data-entity-2="ent0012" data-link-type="aggregation" data-source-line="90" id="lnk26"><path codeLine="90" d="M197,788.3883 C197,826.5583 197,877.6183 197,915.8683" fill="none" id="HopDong-backto-HopDongDB" style="stroke:#181818;stroke-width:1;"/><polygon fill="none" points="197,776.3883,193,782.3883,197,788.3883,201,782.3883,197,776.3883" style="stroke:#181818;stroke-width:1;stroke-linejoin:miter;stroke-miterlimit:10;"/></g><!--reverse link PhieuCoc to PhieuCocDB--><g class="link" data-entity-1="ent0007" data-entity-2="ent0013" data-link-type="aggregation" data-source-line="91" id="lnk27"><path codeLine="91" d="M573.09,788.3883 C573.09,826.5583 573.09,877.6183 573.09,915.8683" fill="none" id="PhieuCoc-backto-PhieuCocDB" style="stroke:#181818;stroke-width:1;"/><polygon fill="none" points="573.09,776.3883,569.09,782.3883,573.09,788.3883,577.09,782.3883,573.09,776.3883" style="stroke:#181818;stroke-width:1;stroke-linejoin:miter;stroke-miterlimit:10;"/></g><!--reverse link HoaDon to HoaDonDB--><g class="link" data-entity-1="ent0008" data-entity-2="ent0014" data-link-type="aggregation" data-source-line="92" id="lnk28"><path codeLine="92" d="M1075.75,788.3883 C1075.75,826.5583 1075.75,877.6183 1075.75,915.8683" fill="none" id="HoaDon-backto-HoaDonDB" style="stroke:#181818;stroke-width:1;"/><polygon fill="none" points="1075.75,776.3883,1071.75,782.3883,1075.75,788.3883,1079.75,782.3883,1075.75,776.3883" style="stroke:#181818;stroke-width:1;stroke-linejoin:miter;stroke-miterlimit:10;"/></g><!--reverse link PhieuThu to PhieuThuDB--><g class="link" data-entity-1="ent0009" data-entity-2="ent0015" data-link-type="aggregation" data-source-line="93" id="lnk29"><path codeLine="93" d="M1570,804.9683 C1570,840.0583 1570,874.7583 1570,907.7883" fill="none" id="PhieuThu-backto-PhieuThuDB" style="stroke:#181818;stroke-width:1;"/><polygon fill="none" points="1570,792.9683,1566,798.9683,1570,804.9683,1574,798.9683,1570,792.9683" style="stroke:#181818;stroke-width:1;stroke-linejoin:miter;stroke-miterlimit:10;"/></g><?plantuml-src nLRRZjis47tNLmooBnia1eAcIJP6440sRSk8rpPMz091KHIqn5hiqgGWKSswHVwz8ucohbviquS-sPZxd3d3aH56Sl0tG3QmscpXBL1tlO0HKCzTUq0txXhedGjRRxDUE4R7O3JijJ7w2A58U624Laxw85JC4dQ4D6AX_YRK0NvdCkKDZHIAcrFCGIScqWs5qY5FUGpltZM42LCFkV13KnYpu84Tk6zEM7EUcwc3REO894jJrvX4x3F3bu5MllYBmvkkoKGd8K-cMke4hZxCRwOtn75iT7XH8B1OkWZAShP-0Io5nMxvsyhzEhk3gncPVvnDuMy7obXmwz68gOXgfcZ2jf76vgycyzdDn2si0D4qZuQAunV1Zzj8y6mCb3-QYNwqwaFoPo4dMlYQ6SAcaJPZM2GYl1VycxMAbPn6WWfkhDqOjannQTLoBs_PblXZMB5zK-ffojMNY0MHXu3rr4N5FIccKLCTzELeZB4occI3FZJAQCIFWpeF8UeeKhEDCWo9Ri4PHhGHQGEUB9QtGaNJACiBdGl9Tx7KBBJglIcoOe8nJ3AafhAAK1xE2bVon131f3wKsb7nymeC4mJp-WZFzKih2n2Iva2kZoMmFZ9B7IghHnQiiMIRed3-xdply6Yzy9QpBTpl2XvDTdx5e_aSUVI-mQC15ir_dhrrVx8iUeN8dOZV9yhrop4ixpWBDqgUSkG-DMq-rywMFKzqDeRD_WzSBEjJ32slohROCduDyNbqjGoj6xEgf4UslcyaAIf0lmAnglzcMVzBwqsbzSGsJbpvk3Q4KMRowVIvKBVWwPXS61pD9qg5McNvwc0GZpHIMyS-7hY2lMX41xQTl1PhrUq3HPtI66OOnhNKuThg9_5f0rqwVUwNZ7FjbypmtQ1CuCoUJ37HMdAcAlenNKNiKY_LvLeJ7eWZap_AnTU0jqWGaJzOX1cEZpHlyxC0ASiAoOKLftUxhp1rjq1si5hEoaqdxgfnCTxFcnUZnUD9VYp8TFxc3DO27_WVvlgYJV9ygCLLU0xRTt6OOu2t5u5aeekvgHHU_iupCQ2vrM9mchqL6MZxFot9GBnwJJnU1FxNst9fDlM-34Fx_4KPo50kYWt-_5rPgXGFt7bTOlkdvdB5NQV-bXdz4eamvEfN_6HJe_euEVMPwfYSMUsSLxrZqUQsC_Hnf4UbQK_Z3DcsGrumgQZnH81yn9USym4zvPi_1QtpLBNGwRPw_olrcUpE-J5lUHR4TUpJN3kLtAiXRlaKhFa7?></g></svg>