<svg xmlns="http://www.w3.org/2000/svg" xmlns:xlink="http://www.w3.org/1999/xlink" contentStyleType="text/css" data-diagram-type="CLASS" height="1553px" preserveAspectRatio="none" style="width:1812px;height:1553px;background:#FFFFFF;" version="1.1" viewBox="0 0 1812 1553" width="1812px" zoomAndPan="magnify"><?plantuml 1.2026.6?><defs/><g><g class="title" data-source-line="1"><text fill="#000000" font-family="sans-serif" font-size="14" font-weight="700" lengthAdjust="spacing" textLength="366.6592" x="719.1704" y="23.5352">SO DO LOP 3 TANG - XAC NHAN KHOAN TIEN COC</text></g><!--cluster GUI_LAYER--><g class="cluster" data-qualified-name="GUI_LAYER" data-source-line="15" id="ent0001"><rect fill="#EDF9EC" height="494.23" rx="2.5" ry="2.5" style="stroke:#000000;stroke-width:1.5;" width="460" x="1262" y="44.4883"/><text fill="#000000" font-family="sans-serif" font-size="14" font-weight="700" lengthAdjust="spacing" textLength="122.2197" x="1430.8901" y="60.0234">TANG GIAO DIEN</text></g><!--cluster BUS_LAYER--><g class="cluster" data-qualified-name="BUS_LAYER" data-source-line="44" id="ent0003"><rect fill="#FFF9E6" height="740.23" rx="2.5" ry="2.5" style="stroke:#000000;stroke-width:1.5;" width="1791" x="7" y="578.7183"/><text fill="#000000" font-family="sans-serif" font-size="14" font-weight="700" lengthAdjust="spacing" textLength="124.2432" x="840.3784" y="594.2534">TANG NGHIEP VU</text></g><!--cluster DAL_LAYER--><g class="cluster" data-qualified-name="DAL_LAYER" data-source-line="101" id="ent0009"><rect fill="#EDF6FC" height="180.95" rx="2.5" ry="2.5" style="stroke:#000000;stroke-width:1.5;" width="1146" x="472" y="1358.9483"/><text fill="#000000" font-family="sans-serif" font-size="14" font-weight="700" lengthAdjust="spacing" textLength="180.6396" x="954.6802" y="1374.4834">TANG TRUY CAP DU LIEU</text></g><!--class MHXacNhanKhoanTienCoc--><g class="entity" data-qualified-name="GUI_LAYER.MHXacNhanKhoanTienCoc" data-source-line="16" id="ent0002"><rect fill="#BFE8BA" height="427.2305" rx="2.5" ry="2.5" style="stroke:#9B7B7B;stroke-width:0.5;" width="372.6641" x="1285.67" y="87.4883"/><ellipse cx="1378.1739" cy="103.4883" fill="#ADD1B2" rx="11" ry="11" style="stroke:#181818;stroke-width:1;"/><path d="M1380.6471,109.6313 Q1380.066,109.9302 1379.4268,110.0796 Q1378.7877,110.229 1378.0821,110.229 Q1375.5753,110.229 1374.2554,108.5771 Q1372.9356,106.9253 1372.9356,103.8042 Q1372.9356,100.6748 1374.2554,99.0229 Q1375.5753,97.3711 1378.0821,97.3711 Q1378.7877,97.3711 1379.4351,97.5205 Q1380.0826,97.6699 1380.6471,97.9688 L1380.6471,100.6914 Q1380.0162,100.1104 1379.4227,99.8406 Q1378.8292,99.5708 1378.1983,99.5708 Q1376.8536,99.5708 1376.1688,100.6375 Q1375.484,101.7041 1375.484,103.8042 Q1375.484,105.896 1376.1688,106.9626 Q1376.8536,108.0293 1378.1983,108.0293 Q1378.8292,108.0293 1379.4227,107.7595 Q1380.0162,107.4897 1380.6471,106.9087 Z " fill="#000000"/><text fill="#000000" font-family="sans-serif" font-size="14" lengthAdjust="spacing" textLength="179.1563" x="1398.6739" y="108.7793">MHXacNhanKhoanTienCoc</text><line style="stroke:#9B7B7B;stroke-width:0.5;" x1="1286.67" x2="1657.3341" y1="119.4883" y2="119.4883"/><text fill="#000000" font-family="sans-serif" font-size="14" lengthAdjust="spacing" textLength="188.7197" x="1291.67" y="137.0234">-txtTimKiemPhieu: TextBox</text><text fill="#000000" font-family="sans-serif" font-size="14" lengthAdjust="spacing" textLength="225.1348" x="1291.67" y="153.5117">-grvPhieuChoDoiChieu: GridView</text><text fill="#000000" font-family="sans-serif" font-size="14" lengthAdjust="spacing" textLength="151.9287" x="1291.67" y="170">-lblMaPhieuCoc: Label</text><text fill="#000000" font-family="sans-serif" font-size="14" lengthAdjust="spacing" textLength="138.7695" x="1291.67" y="186.4883">-lblTrangThai: Label</text><text fill="#000000" font-family="sans-serif" font-size="14" lengthAdjust="spacing" textLength="190.8047" x="1291.67" y="202.9766">-lblHoTenKhachHang: Label</text><text fill="#000000" font-family="sans-serif" font-size="14" lengthAdjust="spacing" textLength="154.7998" x="1291.67" y="219.4648">-lblSoDienThoai: Label</text><text fill="#000000" font-family="sans-serif" font-size="14" lengthAdjust="spacing" textLength="112.1641" x="1291.67" y="235.9531">-lblPhong: Label</text><text fill="#000000" font-family="sans-serif" font-size="14" lengthAdjust="spacing" textLength="168.8613" x="1291.67" y="252.4414">-lblHinhThucThue: Label</text><text fill="#000000" font-family="sans-serif" font-size="14" lengthAdjust="spacing" textLength="168.7588" x="1291.67" y="268.9297">-lblSoGiuongThue: Label</text><text fill="#000000" font-family="sans-serif" font-size="14" lengthAdjust="spacing" textLength="133.9775" x="1291.67" y="285.418">-lblTongTien: Label</text><text fill="#000000" font-family="sans-serif" font-size="14" lengthAdjust="spacing" textLength="230.7744" x="1291.67" y="301.9063">-lblPhuongThucThanhToan: Label</text><text fill="#000000" font-family="sans-serif" font-size="14" lengthAdjust="spacing" textLength="161.9775" x="1291.67" y="318.3945">-lblNhanVienSale: Label</text><text fill="#000000" font-family="sans-serif" font-size="14" lengthAdjust="spacing" textLength="197.5244" x="1291.67" y="334.8828">-grvGiuongSeKhoa: GridView</text><text fill="#000000" font-family="sans-serif" font-size="14" lengthAdjust="spacing" textLength="136.5342" x="1291.67" y="351.3711">-pnlChungTu: Panel</text><text fill="#000000" font-family="sans-serif" font-size="14" lengthAdjust="spacing" textLength="146.1934" x="1291.67" y="367.8594">-imgChungTu: Image</text><text fill="#000000" font-family="sans-serif" font-size="14" lengthAdjust="spacing" textLength="174.6719" x="1291.67" y="384.3477">-lnkMoChungTuPDF: Link</text><text fill="#000000" font-family="sans-serif" font-size="14" lengthAdjust="spacing" textLength="232.8936" x="1291.67" y="400.8359">-txtLyDoYeuCauBoSung: TextArea</text><text fill="#000000" font-family="sans-serif" font-size="14" lengthAdjust="spacing" textLength="143.3154" x="1291.67" y="417.3242">-btnXacNhan: Button</text><text fill="#000000" font-family="sans-serif" font-size="14" lengthAdjust="spacing" textLength="185.8145" x="1291.67" y="433.8125">-btnYeuCauBoSung: Button</text><line style="stroke:#9B7B7B;stroke-width:1;" x1="1286.67" x2="1657.3341" y1="440.7656" y2="440.7656"/><text fill="#000000" font-family="sans-serif" font-size="14" lengthAdjust="spacing" textLength="360.6641" x="1291.67" y="458.3008">+hienThiDanhSachPhieuChoDoiChieu(tuKhoa: String)</text><text fill="#000000" font-family="sans-serif" font-size="14" lengthAdjust="spacing" textLength="247.8506" x="1291.67" y="474.7891">+chonPhieuCoc(maPhieuCoc: String)</text><text fill="#000000" font-family="sans-serif" font-size="14" lengthAdjust="spacing" textLength="122.1377" x="1291.67" y="491.2773">+xacNhanHopLe()</text><text fill="#000000" font-family="sans-serif" font-size="14" lengthAdjust="spacing" textLength="199.7188" x="1291.67" y="507.7656">+yeuCauBoSung(lyDo: String)</text></g><!--class XacNhanKhoanTienCoc--><g class="entity" data-qualified-name="BUS_LAYER.XacNhanKhoanTienCoc" data-source-line="45" id="ent0004"><rect fill="#F4E3A2" height="113.9531" rx="2.5" ry="2.5" style="stroke:#9B7B7B;stroke-width:0.5;" width="675.8994" x="1059.05" y="621.7183"/><ellipse cx="1314.3449" cy="637.7183" fill="#ADD1B2" rx="11" ry="11" style="stroke:#181818;stroke-width:1;"/><path d="M1316.8181,643.8613 Q1316.237,644.1602 1315.5979,644.3096 Q1314.9587,644.459 1314.2531,644.459 Q1311.7463,644.459 1310.4265,642.8071 Q1309.1066,641.1553 1309.1066,638.0342 Q1309.1066,634.9048 1310.4265,633.2529 Q1311.7463,631.6011 1314.2531,631.6011 Q1314.9587,631.6011 1315.6062,631.7505 Q1316.2536,631.8999 1316.8181,632.1988 L1316.8181,634.9214 Q1316.1872,634.3404 1315.5937,634.0706 Q1315.0002,633.8008 1314.3693,633.8008 Q1313.0246,633.8008 1312.3398,634.8675 Q1311.655,635.9341 1311.655,638.0342 Q1311.655,640.126 1312.3398,641.1926 Q1313.0246,642.2593 1314.3693,642.2593 Q1315.0002,642.2593 1315.5937,641.9895 Q1316.1872,641.7197 1316.8181,641.1387 Z " fill="#000000"/><text fill="#000000" font-family="sans-serif" font-size="14" lengthAdjust="spacing" textLength="156.8096" x="1334.8449" y="643.0093">XacNhanKhoanTienCoc</text><line style="stroke:#9B7B7B;stroke-width:0.5;" x1="1060.05" x2="1733.9494" y1="653.7183" y2="653.7183"/><line style="stroke:#9B7B7B;stroke-width:0.5;" x1="1060.05" x2="1733.9494" y1="661.7183" y2="661.7183"/><text fill="#000000" font-family="sans-serif" font-size="14" lengthAdjust="spacing" textLength="459.751" x="1065.05" y="679.2534">+LayDanhSachChoDoiChieu(text: String): IReadOnlyList&lt;PhieuCoc&gt;</text><text fill="#000000" font-family="sans-serif" font-size="14" lengthAdjust="spacing" textLength="294.4307" x="1065.05" y="695.7417">+LayChiTiet(maPhieuCoc: String): PhieuCoc</text><text fill="#000000" font-family="sans-serif" font-size="14" lengthAdjust="spacing" textLength="663.8994" x="1065.05" y="712.23">+XacNhanHopLe(maPhieuCoc: String, maNhanVienQuanLy: String): KetQuaXacNhanKhoanTienCoc</text><text fill="#000000" font-family="sans-serif" font-size="14" lengthAdjust="spacing" textLength="413.3145" x="1065.05" y="728.7183">+YeuCauBoSung(maPhieuCoc: String, lyDo: String): PhieuCoc</text></g><!--class PhieuCoc--><g class="entity" data-qualified-name="BUS_LAYER.PhieuCoc" data-source-line="52" id="ent0005"><rect fill="#F4E3A2" height="295.3242" rx="2.5" ry="2.5" style="stroke:#9B7B7B;stroke-width:0.5;" width="623.2217" x="458.39" y="810.6683"/><ellipse cx="734.5414" cy="826.6683" fill="#ADD1B2" rx="11" ry="11" style="stroke:#181818;stroke-width:1;"/><path d="M737.0145,832.8113 Q736.4335,833.1102 735.7943,833.2596 Q735.1551,833.409 734.4496,833.409 Q731.9427,833.409 730.6229,831.7571 Q729.3031,830.1053 729.3031,826.9842 Q729.3031,823.8548 730.6229,822.2029 Q731.9427,820.5511 734.4496,820.5511 Q735.1551,820.5511 735.8026,820.7005 Q736.4501,820.8499 737.0145,821.1488 L737.0145,823.8714 Q736.3837,823.2904 735.7901,823.0206 Q735.1966,822.7508 734.5658,822.7508 Q733.2211,822.7508 732.5362,823.8175 Q731.8514,824.8841 731.8514,826.9842 Q731.8514,829.076 732.5362,830.1426 Q733.2211,831.2093 734.5658,831.2093 Q735.1966,831.2093 735.7901,830.9395 Q736.3837,830.6697 737.0145,830.0887 Z " fill="#000000"/><text fill="#000000" font-family="sans-serif" font-size="14" lengthAdjust="spacing" textLength="62.4189" x="755.0414" y="831.9593">PhieuCoc</text><line style="stroke:#9B7B7B;stroke-width:0.5;" x1="459.39" x2="1080.6117" y1="842.6683" y2="842.6683"/><text fill="#000000" font-family="sans-serif" font-size="14" lengthAdjust="spacing" textLength="139.1387" x="464.39" y="860.2034">-MaPhieuCoc: String</text><text fill="#000000" font-family="sans-serif" font-size="14" lengthAdjust="spacing" textLength="135.5703" x="464.39" y="876.6917">-TongTien: Decimal</text><text fill="#000000" font-family="sans-serif" font-size="14" lengthAdjust="spacing" textLength="161.9297" x="464.39" y="893.18">-AnhMinhChung: String</text><text fill="#000000" font-family="sans-serif" font-size="14" lengthAdjust="spacing" textLength="217.9844" x="464.39" y="909.6683">-PhuongThucThanhToan: String</text><text fill="#000000" font-family="sans-serif" font-size="14" lengthAdjust="spacing" textLength="192.4111" x="464.39" y="926.1566">-LyDoYeuCauBoSung: String</text><text fill="#000000" font-family="sans-serif" font-size="14" lengthAdjust="spacing" textLength="185.2129" x="464.39" y="942.6448">-HanThanhToan: DateTime</text><text fill="#000000" font-family="sans-serif" font-size="14" lengthAdjust="spacing" textLength="125.9795" x="464.39" y="959.1331">-TrangThai: String</text><text fill="#000000" font-family="sans-serif" font-size="14" lengthAdjust="spacing" textLength="167.9795" x="464.39" y="975.6214">-Giuongs: List&lt;Giuong&gt;</text><line style="stroke:#9B7B7B;stroke-width:1;" x1="459.39" x2="1080.6117" y1="982.5745" y2="982.5745"/><text fill="#000000" font-family="sans-serif" font-size="14" lengthAdjust="spacing" textLength="459.751" x="464.39" y="1000.1097">+LayDanhSachChoDoiChieu(text: String): IReadOnlyList&lt;PhieuCoc&gt;</text><text fill="#000000" font-family="sans-serif" font-size="14" lengthAdjust="spacing" textLength="298.1768" x="464.39" y="1016.598">+DocChiTiet(maPhieuCoc: String): PhieuCoc</text><text fill="#000000" font-family="sans-serif" font-size="14" lengthAdjust="spacing" textLength="255.8691" x="464.39" y="1033.0863">+KiemTraCoTheXacNhanThanhToan()</text><text fill="#000000" font-family="sans-serif" font-size="14" lengthAdjust="spacing" textLength="155.873" x="464.39" y="1049.5745">+XacNhanThanhToan()</text><text fill="#000000" font-family="sans-serif" font-size="14" lengthAdjust="spacing" textLength="611.2217" x="464.39" y="1066.0628">+YeuCauBoSung(lyDo: String, thoiDiemYeuCau: DateTime, thoiHanThanhToan: TimeSpan)</text><text fill="#000000" font-family="sans-serif" font-size="14" lengthAdjust="spacing" textLength="214.1016" x="464.39" y="1082.5511">+CapNhatXacNhanThanhToan()</text><text fill="#000000" font-family="sans-serif" font-size="14" lengthAdjust="spacing" textLength="180.0791" x="464.39" y="1099.0394">+CapNhatYeuCauBoSung()</text></g><!--class PhieuThu--><g class="entity" data-qualified-name="BUS_LAYER.PhieuThu" data-source-line="71" id="ent0006"><rect fill="#F4E3A2" height="163.418" rx="2.5" ry="2.5" style="stroke:#9B7B7B;stroke-width:0.5;" width="629.5859" x="1136.21" y="876.6183"/><ellipse cx="1415.1573" cy="892.6183" fill="#ADD1B2" rx="11" ry="11" style="stroke:#181818;stroke-width:1;"/><path d="M1417.6304,898.7613 Q1417.0494,899.0602 1416.4102,899.2096 Q1415.771,899.359 1415.0655,899.359 Q1412.5586,899.359 1411.2388,897.7071 Q1409.919,896.0553 1409.919,892.9342 Q1409.919,889.8048 1411.2388,888.1529 Q1412.5586,886.5011 1415.0655,886.5011 Q1415.771,886.5011 1416.4185,886.6505 Q1417.066,886.7999 1417.6304,887.0988 L1417.6304,889.8214 Q1416.9996,889.2404 1416.406,888.9706 Q1415.8125,888.7008 1415.1817,888.7008 Q1413.837,888.7008 1413.1521,889.7675 Q1412.4673,890.8341 1412.4673,892.9342 Q1412.4673,895.026 1413.1521,896.0926 Q1413.837,897.1593 1415.1817,897.1593 Q1415.8125,897.1593 1416.406,896.8895 Q1416.9996,896.6197 1417.6304,896.0387 Z " fill="#000000"/><text fill="#000000" font-family="sans-serif" font-size="14" lengthAdjust="spacing" textLength="63.1914" x="1435.6573" y="897.9093">PhieuThu</text><line style="stroke:#9B7B7B;stroke-width:0.5;" x1="1137.21" x2="1764.7959" y1="908.6183" y2="908.6183"/><text fill="#000000" font-family="sans-serif" font-size="14" lengthAdjust="spacing" textLength="93.3105" x="1142.21" y="926.1534">-MaPT: String</text><text fill="#000000" font-family="sans-serif" font-size="14" lengthAdjust="spacing" textLength="143.0693" x="1142.21" y="942.6417">-SoTienThu: Decimal</text><text fill="#000000" font-family="sans-serif" font-size="14" lengthAdjust="spacing" textLength="142.7549" x="1142.21" y="959.13">-ThoiGian: DateTime</text><text fill="#000000" font-family="sans-serif" font-size="14" lengthAdjust="spacing" textLength="139.1387" x="1142.21" y="975.6183">-MaPhieuCoc: String</text><text fill="#000000" font-family="sans-serif" font-size="14" lengthAdjust="spacing" textLength="96.2158" x="1142.21" y="992.1066">-MaNV: String</text><line style="stroke:#9B7B7B;stroke-width:1;" x1="1137.21" x2="1764.7959" y1="999.0597" y2="999.0597"/><text fill="#000000" font-family="sans-serif" font-size="14" lengthAdjust="spacing" textLength="617.5859" x="1142.21" y="1016.5948">+TaoChoTienCoc(phieuCoc: PhieuCoc, maNhanVien: String, thoiGian: DateTime): PhieuThu</text><text fill="#000000" font-family="sans-serif" font-size="14" lengthAdjust="spacing" textLength="58.6455" x="1142.21" y="1033.0831">+Them()</text></g><!--class Phong--><g class="entity" data-qualified-name="BUS_LAYER.Phong" data-source-line="82" id="ent0007"><rect fill="#F4E3A2" height="146.9297" rx="2.5" ry="2.5" style="stroke:#9B7B7B;stroke-width:0.5;" width="372.1445" x="30.93" y="884.8683"/><ellipse cx="191.5301" cy="900.8683" fill="#ADD1B2" rx="11" ry="11" style="stroke:#181818;stroke-width:1;"/><path d="M194.0032,907.0113 Q193.4222,907.3102 192.783,907.4596 Q192.1439,907.609 191.4383,907.609 Q188.9315,907.609 187.6116,905.9571 Q186.2918,904.3053 186.2918,901.1842 Q186.2918,898.0548 187.6116,896.4029 Q188.9315,894.7511 191.4383,894.7511 Q192.1439,894.7511 192.7913,894.9005 Q193.4388,895.0499 194.0032,895.3488 L194.0032,898.0714 Q193.3724,897.4904 192.7789,897.2206 Q192.1854,896.9508 191.5545,896.9508 Q190.2098,896.9508 189.525,898.0175 Q188.8402,899.0841 188.8402,901.1842 Q188.8402,903.276 189.525,904.3426 Q190.2098,905.4093 191.5545,905.4093 Q192.1854,905.4093 192.7789,905.1395 Q193.3724,904.8697 194.0032,904.2887 Z " fill="#000000"/><text fill="#000000" font-family="sans-serif" font-size="14" lengthAdjust="spacing" textLength="42.4443" x="212.0301" y="906.1593">Phong</text><line style="stroke:#9B7B7B;stroke-width:0.5;" x1="31.93" x2="402.0745" y1="916.8683" y2="916.8683"/><text fill="#000000" font-family="sans-serif" font-size="14" lengthAdjust="spacing" textLength="119.1641" x="36.93" y="934.4034">-MaPhong: String</text><text fill="#000000" font-family="sans-serif" font-size="14" lengthAdjust="spacing" textLength="125.9795" x="36.93" y="950.8917">-TrangThai: String</text><text fill="#000000" font-family="sans-serif" font-size="14" lengthAdjust="spacing" textLength="167.9795" x="36.93" y="967.38">-Giuongs: List&lt;Giuong&gt;</text><line style="stroke:#9B7B7B;stroke-width:1;" x1="31.93" x2="402.0745" y1="974.3331" y2="974.3331"/><text fill="#000000" font-family="sans-serif" font-size="14" lengthAdjust="spacing" textLength="258.2275" x="36.93" y="991.8683">+DocChiTiet(maPhong: String): Phong</text><text fill="#000000" font-family="sans-serif" font-size="14" lengthAdjust="spacing" textLength="360.1445" x="36.93" y="1008.3566">+XacNhanDatCoc(maGiuongs: IEnumerable&lt;String&gt;)</text><text fill="#000000" font-family="sans-serif" font-size="14" lengthAdjust="spacing" textLength="127.374" x="36.93" y="1024.8448">+CapNhatDatCoc()</text></g><!--class Giuong--><g class="entity" data-qualified-name="BUS_LAYER.Giuong" data-source-line="92" id="ent0008"><rect fill="#F4E3A2" height="113.9531" rx="2.5" ry="2.5" style="stroke:#9B7B7B;stroke-width:0.5;" width="247.1016" x="300.45" y="1180.9883"/><ellipse cx="395.3157" cy="1196.9883" fill="#ADD1B2" rx="11" ry="11" style="stroke:#181818;stroke-width:1;"/><path d="M397.7889,1203.1313 Q397.2078,1203.4302 396.5687,1203.5796 Q395.9295,1203.729 395.2239,1203.729 Q392.7171,1203.729 391.3973,1202.0771 Q390.0774,1200.4253 390.0774,1197.3042 Q390.0774,1194.1748 391.3973,1192.5229 Q392.7171,1190.8711 395.2239,1190.8711 Q395.9295,1190.8711 396.577,1191.0205 Q397.2244,1191.1699 397.7889,1191.4688 L397.7889,1194.1914 Q397.158,1193.6104 396.5645,1193.3406 Q395.971,1193.0708 395.3401,1193.0708 Q393.9954,1193.0708 393.3106,1194.1375 Q392.6258,1195.2041 392.6258,1197.3042 Q392.6258,1199.396 393.3106,1200.4626 Q393.9954,1201.5293 395.3401,1201.5293 Q395.971,1201.5293 396.5645,1201.2595 Q397.158,1200.9897 397.7889,1200.4087 Z " fill="#000000"/><text fill="#000000" font-family="sans-serif" font-size="14" lengthAdjust="spacing" textLength="48.8701" x="415.8157" y="1202.2793">Giuong</text><line style="stroke:#9B7B7B;stroke-width:0.5;" x1="301.45" x2="546.5516" y1="1212.9883" y2="1212.9883"/><text fill="#000000" font-family="sans-serif" font-size="14" lengthAdjust="spacing" textLength="125.5898" x="306.45" y="1230.5234">-MaGiuong: String</text><text fill="#000000" font-family="sans-serif" font-size="14" lengthAdjust="spacing" textLength="119.1641" x="306.45" y="1247.0117">-MaPhong: String</text><text fill="#000000" font-family="sans-serif" font-size="14" lengthAdjust="spacing" textLength="125.9795" x="306.45" y="1263.5">-TrangThai: String</text><line style="stroke:#9B7B7B;stroke-width:1;" x1="301.45" x2="546.5516" y1="1270.4531" y2="1270.4531"/><text fill="#000000" font-family="sans-serif" font-size="14" lengthAdjust="spacing" textLength="235.1016" x="306.45" y="1287.9883">+XacNhanDaCoc(maPhong: String)</text></g><!--class PhieuCocDB--><g class="entity" data-qualified-name="DAL_LAYER.PhieuCocDB" data-source-line="102" id="ent0010"><rect fill="#BFDCF0" height="113.9531" rx="2.5" ry="2.5" style="stroke:#9B7B7B;stroke-width:0.5;" width="471.751" x="821.12" y="1401.9483"/><ellipse cx="1012.2665" cy="1417.9483" fill="#ADD1B2" rx="11" ry="11" style="stroke:#181818;stroke-width:1;"/><path d="M1014.7396,1424.0913 Q1014.1586,1424.3902 1013.5194,1424.5396 Q1012.8803,1424.689 1012.1747,1424.689 Q1009.6679,1424.689 1008.348,1423.0371 Q1007.0282,1421.3853 1007.0282,1418.2642 Q1007.0282,1415.1348 1008.348,1413.4829 Q1009.6679,1411.8311 1012.1747,1411.8311 Q1012.8803,1411.8311 1013.5277,1411.9805 Q1014.1752,1412.1299 1014.7396,1412.4288 L1014.7396,1415.1514 Q1014.1088,1414.5704 1013.5153,1414.3006 Q1012.9218,1414.0308 1012.2909,1414.0308 Q1010.9462,1414.0308 1010.2614,1415.0975 Q1009.5765,1416.1641 1009.5765,1418.2642 Q1009.5765,1420.356 1010.2614,1421.4226 Q1010.9462,1422.4893 1012.2909,1422.4893 Q1012.9218,1422.4893 1013.5153,1422.2195 Q1014.1088,1421.9497 1014.7396,1421.3687 Z " fill="#000000"/><text fill="#000000" font-family="sans-serif" font-size="14" lengthAdjust="spacing" textLength="80.958" x="1032.7665" y="1423.2393">PhieuCocDB</text><line style="stroke:#9B7B7B;stroke-width:0.5;" x1="822.12" x2="1291.871" y1="1433.9483" y2="1433.9483"/><line style="stroke:#9B7B7B;stroke-width:0.5;" x1="822.12" x2="1291.871" y1="1441.9483" y2="1441.9483"/><text fill="#000000" font-family="sans-serif" font-size="14" lengthAdjust="spacing" textLength="459.751" x="827.12" y="1459.4834">+LayDanhSachChoDoiChieu(text: String): IReadOnlyList&lt;PhieuCoc&gt;</text><text fill="#000000" font-family="sans-serif" font-size="14" lengthAdjust="spacing" textLength="298.1768" x="827.12" y="1475.9717">+DocChiTiet(maPhieuCoc: String): PhieuCoc</text><text fill="#000000" font-family="sans-serif" font-size="14" lengthAdjust="spacing" textLength="323.415" x="827.12" y="1492.46">+CapNhatXacNhanThanhToan(phieu: PhieuCoc)</text><text fill="#000000" font-family="sans-serif" font-size="14" lengthAdjust="spacing" textLength="289.3926" x="827.12" y="1508.9483">+CapNhatYeuCauBoSung(phieu: PhieuCoc)</text></g><!--class PhieuThuDB--><g class="entity" data-qualified-name="DAL_LAYER.PhieuThuDB" data-source-line="108" id="ent0011"><rect fill="#BFDCF0" height="64.4883" rx="2.5" ry="2.5" style="stroke:#9B7B7B;stroke-width:0.5;" width="206.9609" x="1347.52" y="1426.6783"/><ellipse cx="1405.8852" cy="1442.6783" fill="#ADD1B2" rx="11" ry="11" style="stroke:#181818;stroke-width:1;"/><path d="M1408.3584,1448.8213 Q1407.7773,1449.1202 1407.1382,1449.2696 Q1406.499,1449.419 1405.7934,1449.419 Q1403.2866,1449.419 1401.9668,1447.7671 Q1400.647,1446.1153 1400.647,1442.9942 Q1400.647,1439.8648 1401.9668,1438.2129 Q1403.2866,1436.5611 1405.7934,1436.5611 Q1406.499,1436.5611 1407.1465,1436.7105 Q1407.7939,1436.8599 1408.3584,1437.1588 L1408.3584,1439.8814 Q1407.7275,1439.3004 1407.134,1439.0306 Q1406.5405,1438.7608 1405.9096,1438.7608 Q1404.5649,1438.7608 1403.8801,1439.8275 Q1403.1953,1440.8941 1403.1953,1442.9942 Q1403.1953,1445.086 1403.8801,1446.1526 Q1404.5649,1447.2193 1405.9096,1447.2193 Q1406.5405,1447.2193 1407.134,1446.9495 Q1407.7275,1446.6797 1408.3584,1446.0987 Z " fill="#000000"/><text fill="#000000" font-family="sans-serif" font-size="14" lengthAdjust="spacing" textLength="81.7305" x="1426.3852" y="1447.9693">PhieuThuDB</text><line style="stroke:#9B7B7B;stroke-width:0.5;" x1="1348.52" x2="1553.4809" y1="1458.6783" y2="1458.6783"/><line style="stroke:#9B7B7B;stroke-width:0.5;" x1="1348.52" x2="1553.4809" y1="1466.6783" y2="1466.6783"/><text fill="#000000" font-family="sans-serif" font-size="14" lengthAdjust="spacing" textLength="194.9609" x="1353.52" y="1484.2134">+Them(phieuThu: PhieuThu)</text></g><!--class PhongDB--><g class="entity" data-qualified-name="DAL_LAYER.PhongDB" data-source-line="111" id="ent0012"><rect fill="#BFDCF0" height="80.9766" rx="2.5" ry="2.5" style="stroke:#9B7B7B;stroke-width:0.5;" width="270.2275" x="495.89" y="1418.4383"/><ellipse cx="596.2621" cy="1434.4383" fill="#ADD1B2" rx="11" ry="11" style="stroke:#181818;stroke-width:1;"/><path d="M598.7352,1440.5813 Q598.1542,1440.8802 597.515,1441.0296 Q596.8758,1441.179 596.1703,1441.179 Q593.6634,1441.179 592.3436,1439.5271 Q591.0238,1437.8753 591.0238,1434.7542 Q591.0238,1431.6248 592.3436,1429.9729 Q593.6634,1428.3211 596.1703,1428.3211 Q596.8758,1428.3211 597.5233,1428.4705 Q598.1708,1428.6199 598.7352,1428.9188 L598.7352,1431.6414 Q598.1044,1431.0604 597.5108,1430.7906 Q596.9173,1430.5208 596.2865,1430.5208 Q594.9418,1430.5208 594.2569,1431.5875 Q593.5721,1432.6541 593.5721,1434.7542 Q593.5721,1436.846 594.2569,1437.9126 Q594.9418,1438.9793 596.2865,1438.9793 Q596.9173,1438.9793 597.5108,1438.7095 Q598.1044,1438.4397 598.7352,1437.8587 Z " fill="#000000"/><text fill="#000000" font-family="sans-serif" font-size="14" lengthAdjust="spacing" textLength="60.9834" x="616.7621" y="1439.7293">PhongDB</text><line style="stroke:#9B7B7B;stroke-width:0.5;" x1="496.89" x2="765.1175" y1="1450.4383" y2="1450.4383"/><line style="stroke:#9B7B7B;stroke-width:0.5;" x1="496.89" x2="765.1175" y1="1458.4383" y2="1458.4383"/><text fill="#000000" font-family="sans-serif" font-size="14" lengthAdjust="spacing" textLength="258.2275" x="501.89" y="1475.9734">+DocChiTiet(maPhong: String): Phong</text><text fill="#000000" font-family="sans-serif" font-size="14" lengthAdjust="spacing" textLength="222.1953" x="501.89" y="1492.4617">+CapNhatDatCoc(phong: Phong)</text></g><!--reverse link MHXacNhanKhoanTienCoc to XacNhanKhoanTienCoc--><g class="link" data-entity-1="ent0002" data-entity-2="ent0004" data-link-type="aggregation" data-source-line="117" id="lnk13"><path codeLine="117" d="M1472,526.9983 C1472,566.3283 1472,592.1783 1472,621.5583" fill="none" id="MHXacNhanKhoanTienCoc-backto-XacNhanKhoanTienCoc" style="stroke:#181818;stroke-width:1;"/><polygon fill="none" points="1472,514.9983,1468,520.9983,1472,526.9983,1476,520.9983,1472,514.9983" style="stroke:#181818;stroke-width:1;stroke-linejoin:miter;stroke-miterlimit:10;"/></g><!--reverse link XacNhanKhoanTienCoc to PhieuCoc--><g class="link" data-entity-1="ent0004" data-entity-2="ent0005" data-link-type="aggregation" data-source-line="118" id="lnk14"><path codeLine="118" d="M1070.33,747.9583 C1070.33,769.8483 1070.33,783.9483 1070.33,810.4283" fill="none" id="XacNhanKhoanTienCoc-backto-PhieuCoc" style="stroke:#181818;stroke-width:1;"/><polygon fill="none" points="1070.33,735.9583,1066.33,741.9583,1070.33,747.9583,1074.33,741.9583,1070.33,735.9583" style="stroke:#181818;stroke-width:1;stroke-linejoin:miter;stroke-miterlimit:10;"/></g><!--reverse link XacNhanKhoanTienCoc to PhieuThu--><g class="link" data-entity-1="ent0004" data-entity-2="ent0006" data-link-type="aggregation" data-source-line="119" id="lnk15"><path codeLine="119" d="M1435.58,747.9583 C1435.58,788.3783 1435.58,831.1583 1435.58,876.2183" fill="none" id="XacNhanKhoanTienCoc-backto-PhieuThu" style="stroke:#181818;stroke-width:1;"/><polygon fill="none" points="1435.58,735.9583,1431.58,741.9583,1435.58,747.9583,1439.58,741.9583,1435.58,735.9583" style="stroke:#181818;stroke-width:1;stroke-linejoin:miter;stroke-miterlimit:10;"/></g><!--reverse link XacNhanKhoanTienCoc to Phong--><g class="link" data-entity-1="ent0004" data-entity-2="ent0007" data-link-type="aggregation" data-source-line="120" id="lnk16"><path codeLine="120" d="M1046.86,678.8983 C698.17,678.8983 217,678.8983 217,678.8983 C217,678.8983 217,801.7583 217,884.5483" fill="none" id="XacNhanKhoanTienCoc-backto-Phong" style="stroke:#181818;stroke-width:1;"/><polygon fill="none" points="1058.86,678.8983,1052.86,674.8983,1046.86,678.8983,1052.86,682.8983,1058.86,678.8983" style="stroke:#181818;stroke-width:1;stroke-linejoin:miter;stroke-miterlimit:10;"/></g><!--reverse link PhieuCoc to PhieuCocDB--><g class="link" data-entity-1="ent0005" data-entity-2="ent0010" data-link-type="aggregation" data-source-line="121" id="lnk17"><path codeLine="121" d="M951.37,1118.1583 C951.37,1217.2083 951.37,1330.1283 951.37,1401.6283" fill="none" id="PhieuCoc-backto-PhieuCocDB" style="stroke:#181818;stroke-width:1;"/><polygon fill="none" points="951.37,1106.1583,947.37,1112.1583,951.37,1118.1583,955.37,1112.1583,951.37,1106.1583" style="stroke:#181818;stroke-width:1;stroke-linejoin:miter;stroke-miterlimit:10;"/></g><!--reverse link PhieuThu to PhieuThuDB--><g class="link" data-entity-1="ent0006" data-entity-2="ent0011" data-link-type="aggregation" data-source-line="122" id="lnk18"><path codeLine="122" d="M1451,1052.4283 C1451,1164.7683 1451,1349.2383 1451,1426.4483" fill="none" id="PhieuThu-backto-PhieuThuDB" style="stroke:#181818;stroke-width:1;"/><polygon fill="none" points="1451,1040.4283,1447,1046.4283,1451,1052.4283,1455,1046.4283,1451,1040.4283" style="stroke:#181818;stroke-width:1;stroke-linejoin:miter;stroke-miterlimit:10;"/></g><!--reverse link Phong to PhongDB--><g class="link" data-entity-1="ent0007" data-entity-2="ent0012" data-link-type="aggregation" data-source-line="123" id="lnk19"><path codeLine="123" d="M165.69,1044.1883 C165.69,1183.4283 165.69,1458.8983 165.69,1458.8983 C165.69,1458.8983 358.11,1458.8983 495.47,1458.8983" fill="none" id="Phong-backto-PhongDB" style="stroke:#181818;stroke-width:1;"/><polygon fill="none" points="165.69,1032.1883,161.69,1038.1883,165.69,1044.1883,169.69,1038.1883,165.69,1032.1883" style="stroke:#181818;stroke-width:1;stroke-linejoin:miter;stroke-miterlimit:10;"/></g><!--link Phong to Giuong--><g class="link" data-entity-1="ent0007" data-entity-2="ent0008" data-link-type="association" data-source-line="124" id="lnk20"><path codeLine="124" d="M351.76,1032.1683 C351.76,1078.6083 351.76,1137.6483 351.76,1180.5783" fill="none" id="Phong-Giuong" style="stroke:#181818;stroke-width:1;"/><text fill="#000000" font-family="sans-serif" font-size="13" lengthAdjust="spacing" textLength="46.1602" x="304.76" y="1102.9366">quan ly</text><text fill="#000000" font-family="sans-serif" font-size="13" lengthAdjust="spacing" textLength="8.2202" x="355.8244" y="1052.249">1</text><text fill="#000000" font-family="sans-serif" font-size="13" lengthAdjust="spacing" textLength="22.7119" x="319.6584" y="1170.2575">1..*</text></g><!--link PhieuCoc to Giuong--><g class="link" data-entity-1="ent0005" data-entity-2="ent0008" data-link-type="association" data-source-line="125" id="lnk21"><path codeLine="125" d="M502.97,1106.3383 C502.97,1132.7983 502.97,1158.8683 502.97,1180.7383" fill="none" id="PhieuCoc-Giuong" style="stroke:#181818;stroke-width:1;"/><text fill="#000000" font-family="sans-serif" font-size="13" lengthAdjust="spacing" textLength="45.6396" x="456.97" y="1140.1066">dat coc</text><text fill="#000000" font-family="sans-serif" font-size="13" lengthAdjust="spacing" textLength="8.2202" x="481.8473" y="1126.4466">1</text><text fill="#000000" font-family="sans-serif" font-size="13" lengthAdjust="spacing" textLength="22.7119" x="489.2971" y="1170.437">1..*</text></g><!--link GUI_LAYER to BUS_LAYER--><!--link BUS_LAYER to DAL_LAYER--><!--link XacNhanKhoanTienCoc to PhieuCocDB--><!--link Giuong to PhieuCocDB--><?plantuml-src hLTRRzis57xNhpX8NjArBhfrRPUW221BlY6-BPA31CCmq39d4P58LQRMU4F--uuaIg8akbYm8aYCdFlb-qXQCXbHy5RWhc2-MiDxyEtb10PmRpkmdDfBk9ckyAy_6ot1MJcM9KK2Ki1MI2bYsB6K1f89RXqU6Kz8Ic8uX6GdlZA-Xpz9TA2Q9cASocD2GQGo59g2Ynqzq0G-VD24AU6FkV2JBan8y4Zsr9D7h3lFJVW-qdC44JaSR2bJjiqadGM2U-nl2k-w9l2F1J34QFjKP7pdY4YaS3uUZst7pJKYtT5KII-7d_37UhOibHxEYZ5DPZPE3aTp1kG0aytiZxdzCBg5yv4xlXmvHOeosM9wJu9bIFXDA0Zt6UME2E1yE1xzChGBEy2XooVfi_Y6qNWTCffTWK-Vv50yAVK-_QkGEw5m1NDAaqdATdUCVbKsqJPQaD9A15Sm9riQDIeVPxhtGy9wcgdmAHP7Wd2A9Zsr9roisSVY-wxhK1Wyfeo7VfW5-4iDuIOi4taf1gMVAp2R8P7omQ04e-CaUpRvZ74St2DH9p9EhqpgqNm9lSabF7B23EFZKDU4rtuitjVoMOpBhvBnnuLGchKxncICFpQBd1zTyO1R8DbGU5a-e7oPTag9ijbAhZ1n1SCCsSGRHTjHrmwAZzSG5kjWBix1mwLrSN4Xix993ud0zw-KLu2hgi1n4MiuQPizbNLDHJAd5vNmgDLq4M5tkjTpdnpBoNGsMiFTfY37SEDLv42ENOu-QkGmKcFyy-Yz_PEYnclSvB7gjTKcphIk0_TpIybknQFZd1tavwgzwoO6Uc46QUeTjwv4olnUdqBVuGt4f4BRhndXywCMwePAb1aQKx7r1HjZjmRSAWq7NGskadQcDO15Bw9IDDnoQS1YKe7Svk422Ll0kUDYP5tBeW_rbXeF5CtJ9PBY8LUnI3kHMaubLGyvgt2JvN_NRGfy3qYu8dW99FAZ6IjsX1zIjTowjPee9nKFfnZq1l0wP7Z2ngL9CwLIqvvWBlSImgkm3aamdpoPLkbRsLyPW8GhDW79xsp64tvnzcHT3E7jm2RCiEEJQ5oGvLrRLEtM9tYq2iMPYwHshmBfv6jFiLr1jK8ijueSqhZVFgBBI2BHG_F_06m7R5hieaoXOjK8mYRASxgEFHlnBAOfsKRqS-bvtTcoykaqM0OmT5WgUcjvGUE3RitLrQAtPxuX_DlD0pZs6jmDp6UZyg9mxRdsYleurbzHrVRTOVvqSftnk-zwFxpmC3Z5kwHyc5NMtwAXmVIvHqf3jmM84wLl8DxrnnKOdFyp3DkGIahBmg1UgFbTAmO3qwLkdRAj1_jDWvp3fmtoiklxK0_g3gtwUDDZ5VAS5RL_BJdxyGo1ZHzlt_vmLf7d2hxWBOyNSvFcXDsEI0Ym6yjglX8CVWlPRaVvx_ZLY0-Qvv3LF8mw9ZKHZ4rtZBLcLHad3Vu5?></g></svg>